<svg width="21" height="20" viewBox="0 0 21 20" fill="none" xmlns="http://www.w3.org/2000/svg">
<path fill-rule="evenodd" clip-rule="evenodd" d="M20.5 10C20.5 15.5228 16.0228 20 10.5 20C4.97715 20 0.5 15.5228 0.5 10C0.5 4.47715 4.97715 0 10.5 0C16.0228 0 20.5 4.47715 20.5 10ZM19.3786 10.0001C19.3786 14.9036 15.4036 18.8786 10.5001 18.8786C5.59664 18.8786 1.6216 14.9036 1.6216 10.0001C1.6216 5.09664 5.59664 1.1216 10.5001 1.1216C15.4036 1.1216 19.3786 5.09664 19.3786 10.0001ZM11.6494 7.73631L10.54 2.93729L9.43056 7.73631L4.9868 5.61157L8.0471 9.47111L3.61528 11.6206L8.54085 11.6344L7.45821 16.4395L10.54 12.5971L13.6218 16.4395L12.5392 11.6344L17.4647 11.6206L13.0329 9.47111L16.0932 5.61157L11.6494 7.73631Z" fill="white"/>
</svg> 
