<svg width="16" height="16" viewBox="0 0 16 16" fill="none" xmlns="http://www.w3.org/2000/svg">
<path fill-rule="evenodd" clip-rule="evenodd" d="M8 0C3.58172 0 0 3.58172 0 8C0 12.4183 3.58172 16 8 16C12.4183 16 16 12.4183 16 8C16 3.58172 12.4183 0 8 0ZM11.4292 4.57083C11.7611 4.90278 11.7611 5.44097 11.4292 5.77292L9.20159 8.00049L11.4292 10.2281C11.7611 10.56 11.7611 11.0982 11.4292 11.4301C11.0972 11.7621 10.559 11.7621 10.2271 11.4301L7.99951 9.20257L5.77231 11.4298C5.44037 11.7617 4.90218 11.7617 4.57023 11.4298C4.23828 11.0978 4.23828 10.5596 4.57023 10.2277L6.79743 8.00049L4.57023 5.77329C4.23828 5.44134 4.23828 4.90315 4.57023 4.57121C4.90218 4.23926 5.44037 4.23926 5.77231 4.57121L7.99951 6.79841L10.2271 4.57083C10.559 4.23889 11.0972 4.23889 11.4292 4.57083Z" fill="#F0F1F7"/>
</svg>
