<svg width="18" height="14" viewBox="0 0 18 14" fill="none" xmlns="http://www.w3.org/2000/svg">
<path d="M9.00002 10.7501C7.02476 10.7501 5.42581 9.2212 5.27867 7.2837L2.5469 5.1725C2.18779 5.62303 1.85732 6.09933 1.59065 6.62016C1.53108 6.738 1.50004 6.8682 1.50004 7.00024C1.50004 7.13228 1.53108 7.26248 1.59065 7.38032C3.00289 10.1358 5.79872 12.0001 9.00002 12.0001C9.70081 12.0001 10.3768 11.8959 11.0284 11.7277L9.67711 10.6821C9.45394 10.7253 9.22731 10.748 9.00002 10.7501ZM17.1724 12.2631L14.2935 10.0381C15.168 9.30113 15.8873 8.39758 16.4094 7.38006C16.469 7.26222 16.5 7.13202 16.5 6.99998C16.5 6.86794 16.469 6.73774 16.4094 6.6199C14.9972 3.86443 12.2013 2.00011 9.00002 2.00011C7.65927 2.00173 6.34029 2.33927 5.16357 2.98188L1.85055 0.421203C1.80734 0.387585 1.75794 0.36281 1.70516 0.348293C1.65238 0.333776 1.59725 0.329801 1.54294 0.336597C1.48862 0.343393 1.43617 0.360826 1.38859 0.387899C1.34102 0.414972 1.29924 0.451155 1.26565 0.49438L0.754452 1.15245C0.686639 1.23969 0.656253 1.35029 0.669976 1.45992C0.683699 1.56956 0.740407 1.66926 0.827629 1.73709L16.1495 13.579C16.1927 13.6126 16.2421 13.6374 16.2949 13.6519C16.3477 13.6664 16.4028 13.6704 16.4571 13.6636C16.5114 13.6568 16.5639 13.6394 16.6115 13.6123C16.659 13.5852 16.7008 13.5491 16.7344 13.5058L17.2459 12.8478C17.3136 12.7605 17.344 12.6499 17.3302 12.5402C17.3164 12.4306 17.2597 12.3309 17.1724 12.2631ZM12.388 8.56521L11.3646 7.77407C11.4508 7.52497 11.4965 7.26367 11.5 7.00011C11.5051 6.61424 11.4196 6.23256 11.2504 5.88572C11.0812 5.53888 10.8331 5.23656 10.5258 5.00303C10.2186 4.7695 9.86091 4.61128 9.48145 4.54108C9.10199 4.47088 8.71135 4.49065 8.34091 4.59881C8.49794 4.81159 8.58289 5.06898 8.58336 5.33344C8.57947 5.42145 8.56603 5.50876 8.54325 5.59386L6.62633 4.11235C7.29221 3.55589 8.13225 3.25075 9.00002 3.25011C9.49256 3.24984 9.98032 3.34664 10.4354 3.535C10.8905 3.72336 11.304 3.99957 11.6523 4.34785C12.0006 4.69612 12.2768 5.10963 12.4651 5.56472C12.6535 6.01982 12.7503 6.50758 12.75 7.00011C12.75 7.56339 12.6123 8.08839 12.388 8.56547V8.56521Z" fill="#666892"/>
</svg>
