<svg id="Capa_1" data-name="Capa 1" xmlns="http://www.w3.org/2000/svg" viewBox="0 0 51.54 58.9"><path d="M32,61.45H32a3.88,3.88,0,0,0-.33-.23l-15-8.56L6.23,46.72V17.28l.25-.14L28,4.88l4-2.33H32c.13.09.26.18.4.26l16.32,9.33,9,5.14V46.72l-.21.12L35.73,59.31C34.5,60,33.27,60.74,32,61.45ZM11.11,32c0,3.83,0,7.66,0,11.49a.69.69,0,0,0,.4.7Q21.6,49.92,31.66,55.68a.57.57,0,0,0,.66,0q10.09-5.79,20.2-11.55a.64.64,0,0,0,.38-.63q0-11.52,0-23.05a.61.61,0,0,0-.34-.61Q42.41,14.09,32.29,8.29a.51.51,0,0,0-.59,0Q21.62,14.07,11.53,19.81a.77.77,0,0,0-.43.77C11.12,24.38,11.11,28.18,11.11,32Z" transform="translate(-6.23 -2.55)"/><path d="M42.77,25.77c-1.59,0-3.15,0-4.71,0a.37.37,0,0,1-.27-.22c-.71-2.53-2.58-3.59-5-3.89a7.11,7.11,0,0,0-4.71.9,2.81,2.81,0,0,0-1.19,3.7,3.49,3.49,0,0,0,1.76,1.65,15.07,15.07,0,0,0,3.54,1,31,31,0,0,1,6,1.62,9.19,9.19,0,0,1,3.32,2.25A7,7,0,0,1,43.24,38a7.75,7.75,0,0,1-4.58,6.7,14.13,14.13,0,0,1-8.09,1.38,12,12,0,0,1-5.29-1.71A9.94,9.94,0,0,1,20.64,37c0-.22-.06-.43-.08-.65a1.05,1.05,0,0,1,0-.13h5c.12.41.22.84.36,1.25a6,6,0,0,0,5.41,4.29A8.1,8.1,0,0,0,36.21,41,3.3,3.3,0,0,0,37,35.55a5.88,5.88,0,0,0-2-1.13c-1.53-.46-3.1-.8-4.67-1.12a16.3,16.3,0,0,1-5.41-1.89,7.18,7.18,0,0,1-2.45-9.91,8.33,8.33,0,0,1,4.05-3.21A13.84,13.84,0,0,1,36.59,18a9.08,9.08,0,0,1,6.12,7.27c0,.13,0,.26.07.39A.55.55,0,0,0,42.77,25.77Z" transform="translate(-6.23 -2.55)"/></svg>