<?xml version="1.0" encoding="UTF-8"?>
<svg xmlns="http://www.w3.org/2000/svg">
    <defs>

        <symbol viewBox="0 0 24 24" id="burg">

          <g>

            <path fill-rule="evenodd" clip-rule="evenodd" d="M4 6H20C20.55 6 21 6.45 21 7V7.01C21 7.56 20.55 8.01 20 8.01H4C3.45 8.01 3 7.56 3 7.01V7C3 6.45 3.45 6 4 6ZM20 11H4C3.45 11 3 11.45 3 12C3 12.55 3.45 13 4 13H20C20.55 13 21 12.55 21 12C21 11.45 20.55 11 20 11ZM4 18H14C14.55 18 15 17.55 15 17C15 16.45 14.55 16 14 16H4C3.45 16 3 16.45 3 17C3 17.55 3.45 18 4 18Z"/>

          </g>

        </symbol>

        <symbol viewBox="0 0 24 24" id="armom">

          <g>
            <path fill-rule="evenodd" clip-rule="evenodd" d="M4.19 4.37625L11.19 1.26625C11.7 1.03625 12.3 1.03625 12.81 1.26625L19.81 4.37625C20.53 4.69625 21 5.41625 21 6.20625V10.9062C21 16.4563 17.16 21.6462 12 22.9062C6.84 21.6462 3 16.4563 3 10.9062V6.20625C3 5.41625 3.47 4.69625 4.19 4.37625ZM19 11.8962H12V3.09625L5 6.20625V11.9062H12V20.8363C15.72 19.6863 18.47 16.0163 19 11.8962Z" />
          </g>

        </symbol>

        <symbol viewBox="0 0 24 24" id="arr">

          <g>
            <path d="M9.29624 5.70375C9.29624 6.26375 9.74624 6.70375 10.2962 6.70375H15.8862L4.99624 17.5938C4.60624 17.9838 4.60624 18.6138 4.99624 19.0038C5.38624 19.3938 6.01624 19.3938 6.40624 19.0038L17.2962 8.11375V13.7038C17.2962 14.2538 17.7462 14.7038 18.2962 14.7038C18.8462 14.7038 19.2962 14.2538 19.2962 13.7038V5.70375C19.2962 5.15375 18.8462 4.70375 18.2962 4.70375H10.2962C9.74624 4.70375 9.29624 5.15375 9.29624 5.70375Z"/>
          </g>

        </symbol>

        <symbol viewBox="0 0 20 20" id="save">

          <g>
            <path d="M4.15425 13.3744C3.44175 12.1403 3.86573 10.558 5.09981 9.84549L7.98656 8.17882L7.1949 6.80762L4.30815 8.47428C2.31629 9.62428 1.63304 12.1742 2.78304 14.1661C3.93304 16.1579 6.48295 16.8412 8.47481 15.6912L11.3616 14.0245L10.5699 12.6533L7.68315 14.32C6.44906 15.0325 4.86675 14.6085 4.15425 13.3744ZM7.52983 12.3877L13.3033 9.05441L12.47 7.61103L6.6965 10.9444L7.52983 12.3877ZM11.525 4.30762L8.63827 5.97428L9.42994 7.34549L12.3167 5.67882C13.5508 4.96632 15.1331 5.3903 15.8456 6.62439C16.5581 7.85848 16.1341 9.44079 14.9 10.1533L12.0133 11.82L12.8049 13.1912L15.6917 11.5245C17.6836 10.3745 18.3668 7.82458 17.2168 5.83272C16.0668 3.84086 13.5169 3.15762 11.525 4.30762Z"/>
          </g>

        </symbol>

        
        <symbol viewBox="0 0 17 12" id="h1">

          <g>
            <path d="M9.27344 12H6.92969V7.125H2.35938V12H0.015625V0.625H2.35938V5.23438H6.92969V0.625H9.27344V12Z"/>
            <path d="M16.7703 12H14.5125V3.29688L11.8172 4.13281V2.29688L16.5281 0.609375H16.7703V12Z"/>
          </g>

        </symbol>

        <symbol viewBox="0 0 19 12" id="h2">

          <g>
            <path d="M9.27344 12H6.92969V7.125H2.35938V12H0.015625V0.625H2.35938V5.23438H6.92969V0.625H9.27344V12Z" />
            <path d="M19.0828 12H11.2859V10.4531L14.9656 6.53125C15.4708 5.97917 15.8432 5.4974 16.0828 5.08594C16.3276 4.67448 16.45 4.28385 16.45 3.91406C16.45 3.40885 16.3224 3.01302 16.0672 2.72656C15.812 2.4349 15.4474 2.28906 14.9734 2.28906C14.463 2.28906 14.0594 2.46615 13.7625 2.82031C13.4708 3.16927 13.325 3.63021 13.325 4.20312H11.0594C11.0594 3.51042 11.2234 2.8776 11.5516 2.30469C11.8849 1.73177 12.3536 1.28385 12.9578 0.960938C13.562 0.632812 14.2469 0.46875 15.0125 0.46875C16.1844 0.46875 17.0932 0.75 17.7391 1.3125C18.3901 1.875 18.7156 2.66927 18.7156 3.69531C18.7156 4.25781 18.5698 4.83073 18.2781 5.41406C17.9865 5.9974 17.4865 6.67708 16.7781 7.45312L14.1922 10.1797H19.0828V12Z" />
          </g>

        </symbol>

        <symbol viewBox="0 0 12 12" id="arr-rotate">

          <g>
            <path d="M6.56308 0.424004L7.98308 1.844C8.24974 2.11067 8.24974 2.53734 7.98308 2.79067L6.56308 4.17734C6.14308 4.59067 5.42974 4.29734 5.42974 3.704V2.684C3.53641 3.004 2.09641 4.644 2.09641 6.624C2.09641 8.44401 3.30974 9.97734 4.97641 10.4573C5.24974 10.5373 5.42974 10.7973 5.42974 11.084V11.104C5.42974 11.5307 5.02308 11.864 4.60974 11.744C2.38308 11.0973 0.763077 9.05067 0.763077 6.624C0.763077 3.904 2.80308 1.664 5.42974 1.33734V0.897338C5.42974 0.304004 6.14974 0.0106709 6.56308 0.424004ZM10.7697 4.07067C10.9564 4.41067 11.1031 4.764 11.2097 5.13067C11.3364 5.544 11.0031 5.95734 10.5697 5.95734H10.5564C10.2697 5.95734 10.0097 5.77067 9.92975 5.49067C9.84975 5.224 9.74308 4.964 9.60975 4.71734C9.46975 4.464 9.51641 4.15067 9.72308 3.944L9.72975 3.93734C10.0364 3.63067 10.5631 3.69067 10.7697 4.07067ZM6.76308 11.0773V11.0907C6.76308 11.524 7.17641 11.8507 7.58974 11.7307C7.95641 11.624 8.30974 11.4773 8.64974 11.2907C9.02974 11.084 9.08974 10.5573 8.78308 10.2507L8.76974 10.2373C8.56308 10.0307 8.24974 9.984 7.99641 10.124C7.74974 10.264 7.48974 10.3707 7.22308 10.4507C6.94974 10.5307 6.76308 10.7907 6.76308 11.0773ZM10.7631 9.17734C10.5564 9.55734 10.0297 9.61734 9.72307 9.31067C9.52307 9.11067 9.46974 8.79067 9.60974 8.53734C9.74307 8.284 9.84974 8.024 9.92974 7.75734C10.0097 7.47734 10.2631 7.29067 10.5564 7.29067H10.5697C11.0031 7.29067 11.3297 7.704 11.2097 8.11734C11.0964 8.484 10.9497 8.83734 10.7631 9.17734Z"/>
          </g>

        </symbol>

        <symbol viewBox="0 0 12 12" id="arr-rotate-r">

          <g>
            <path fill-rule="evenodd" clip-rule="evenodd" d="M6.57027 0.898833V1.33883C9.2036 1.6655 11.2369 3.9055 11.2369 6.6255C11.2369 9.05217 9.61694 11.0988 7.39027 11.7388C6.97694 11.8588 6.57027 11.5322 6.57027 11.0988V11.0855C6.57027 10.7988 6.75027 10.5388 7.0236 10.4588C8.69027 9.97217 9.9036 8.4455 9.9036 6.6255C9.9036 4.6455 8.4636 3.0055 6.57027 2.6855V3.7055C6.57027 4.29883 5.85694 4.59883 5.43694 4.1855L4.01694 2.79883C3.75027 2.53883 3.75027 2.11217 4.01694 1.8455L5.43027 0.4255C5.85027 0.00549994 6.57027 0.3055 6.57027 0.898833ZM1.23693 4.07217C1.44359 3.69217 1.97026 3.63883 2.27693 3.9455C2.48359 4.15217 2.53026 4.4655 2.38359 4.71217C2.25026 4.9655 2.14359 5.2255 2.06359 5.49217C1.98359 5.77217 1.72359 5.95883 1.43693 5.95883H1.43026C0.996928 5.95883 0.663594 5.5455 0.790261 5.1255C0.903594 4.75883 1.05026 4.41217 1.23693 4.07217ZM0.790261 8.1255C0.663594 7.7055 0.996928 7.29217 1.43026 7.29217H1.44359C1.73026 7.29217 1.99026 7.47883 2.07026 7.77217C2.15026 8.03883 2.25693 8.29883 2.39026 8.5455C2.53026 8.79883 2.47693 9.1055 2.27693 9.31217C1.97026 9.61883 1.43693 9.55883 1.23026 9.17883C1.04359 8.83883 0.896928 8.4855 0.790261 8.1255ZM3.3436 11.3055C3.6836 11.4922 4.03694 11.6388 4.4036 11.7455C4.81694 11.8655 5.23027 11.5322 5.23027 11.1055V11.0855C5.23027 10.7988 5.0436 10.5388 4.7636 10.4588C4.49694 10.3788 4.2436 10.2722 3.99694 10.1388C3.7436 9.99883 3.4236 10.0455 3.2236 10.2522L3.2036 10.2722C2.9036 10.5722 2.9636 11.0988 3.3436 11.3055Z"/>
          </g>

        </symbol>

        <symbol viewBox="0 0 16 12" id="backspase-r">

          <g>
<path fill-rule="evenodd" clip-rule="evenodd" d="M4.59836 0H14.5984C15.3317 0 15.9317 0.6 15.9317 1.33333V10.6667C15.9317 11.4 15.3317 12 14.5984 12H4.59836C4.13836 12 3.77836 11.76 3.53836 11.4133L0.178359 6.37333C0.0316927 6.14667 0.0316927 5.86 0.178359 5.63333L3.53836 0.586667C3.77836 0.233333 4.13836 0 4.59836 0ZM11.1917 8.86668C11.4517 9.12668 11.8717 9.12668 12.1317 8.86668C12.385 8.60668 12.385 8.18001 12.1317 7.92668L10.205 6.00001L12.1317 4.07334C12.3917 3.81334 12.3917 3.39334 12.1317 3.13334C11.8717 2.87334 11.4517 2.87334 11.1917 3.13334L9.26503 5.06001L7.33836 3.13334C7.07836 2.87334 6.65836 2.87334 6.39836 3.13334C6.27352 3.2579 6.20337 3.427 6.20337 3.60334C6.20337 3.77969 6.27352 3.94879 6.39836 4.07334L8.32503 6.00001L6.39836 7.92668C6.27352 8.05123 6.20337 8.22033 6.20337 8.39668C6.20337 8.57302 6.27352 8.74212 6.39836 8.86668C6.65836 9.12668 7.07836 9.12668 7.33836 8.86668L9.26503 6.94001L11.1917 8.86668Z"/>
          </g>

        </symbol>


        <symbol viewBox="0 0 16 16" id="arr-back">

          <g>
            <path d="M14.7915 7.00496H3.62148L8.50148 2.12496C8.89148 1.73496 8.89148 1.09496 8.50148 0.704961C8.31465 0.517709 8.061 0.412476 7.79648 0.412476C7.53197 0.412476 7.27832 0.517709 7.09148 0.704961L0.501484 7.29496C0.111484 7.68496 0.111484 8.31496 0.501484 8.70496L7.09148 15.295C7.48148 15.685 8.11148 15.685 8.50148 15.295C8.89148 14.905 8.89148 14.275 8.50148 13.885L3.62148 9.00496H14.7915C15.3415 9.00496 15.7915 8.55496 15.7915 8.00496C15.7915 7.45496 15.3415 7.00496 14.7915 7.00496Z"/>
          </g>

        </symbol>

        <symbol viewBox="0 0 16 16" id="basket">

          <g>
            <path fill-rule="evenodd" clip-rule="evenodd" d="M10.3335 2.66667H12.0002C12.3668 2.66667 12.6668 2.96667 12.6668 3.33333C12.6668 3.7 12.3668 4 12.0002 4H4.00016C3.6335 4 3.3335 3.7 3.3335 3.33333C3.3335 2.96667 3.6335 2.66667 4.00016 2.66667H5.66683L6.14016 2.19333C6.26016 2.07333 6.4335 2 6.60683 2H9.3935C9.56683 2 9.74016 2.07333 9.86016 2.19333L10.3335 2.66667ZM5.3335 14C4.60016 14 4.00016 13.4 4.00016 12.6667V6C4.00016 5.26667 4.60016 4.66667 5.3335 4.66667H10.6668C11.4002 4.66667 12.0002 5.26667 12.0002 6V12.6667C12.0002 13.4 11.4002 14 10.6668 14H5.3335Z" />
          </g>

        </symbol>

        <symbol viewBox="0 0 16 16" id="security">

          <g>
            <path fill-rule="evenodd" clip-rule="evenodd" d="M3.53218 2.58924L2.79333 2.9175C2.31333 3.13083 2 3.61083 2 4.1375V7.27083C2 10.9708 4.56 14.4308 8 15.2708C9.94941 14.7948 11.6162 13.4774 12.6947 11.7518L11.7163 10.7733C10.8758 12.2511 9.56701 13.4063 8 13.8907V7.93736H3.33333V4.13736L4.5429 3.59997L3.53218 2.58924ZM8 5.17145V2.06402L5.84847 3.01992L4.83775 2.0092L7.46 0.844168C7.8 0.690835 8.2 0.690835 8.54 0.844168L13.2067 2.9175C13.6867 3.13083 14 3.61083 14 4.1375V7.27083C14 8.39487 13.7637 9.49675 13.3383 10.5098L12.3036 9.47502C12.4756 8.97796 12.5986 8.45989 12.6667 7.93069H10.7592L8 5.17145ZM8 7.05707V7.93069H8.87363L8 7.05707Z"/>
            <rect x="1.40039" y="0.457439" width="20" height="1.33333" rx="0.666667" transform="rotate(45 1.40039 0.457439)"/>
          </g>

        </symbol>


        <symbol viewBox="0 0 16 20" id="copy">

          <g>
            <path fill-rule="evenodd" clip-rule="evenodd" d="M10.9168 0.833336H1.75016C0.833496 0.833336 0.0834961 1.58334 0.0834961 2.5V13.3333C0.0834961 13.7917 0.458496 14.1667 0.916829 14.1667C1.37516 14.1667 1.75016 13.7917 1.75016 13.3333V3.33334C1.75016 2.875 2.12516 2.5 2.5835 2.5H10.9168C11.3752 2.5 11.7502 2.125 11.7502 1.66667C11.7502 1.20834 11.3752 0.833336 10.9168 0.833336ZM14.2502 4.16667H5.0835C4.16683 4.16667 3.41683 4.91667 3.41683 5.83334V17.5C3.41683 18.4167 4.16683 19.1667 5.0835 19.1667H14.2502C15.1668 19.1667 15.9168 18.4167 15.9168 17.5V5.83334C15.9168 4.91667 15.1668 4.16667 14.2502 4.16667ZM5.91683 17.5H13.4168C13.8752 17.5 14.2502 17.125 14.2502 16.6667V6.66667C14.2502 6.20834 13.8752 5.83334 13.4168 5.83334H5.91683C5.4585 5.83334 5.0835 6.20834 5.0835 6.66667V16.6667C5.0835 17.125 5.4585 17.5 5.91683 17.5Z"/>
          </g>

        </symbol>

        <symbol viewBox="0 0 16 20" id="open-left">

          <g>
            <path fill-rule="evenodd" clip-rule="evenodd" d="M3.33333 14C3.33333 14.3667 3.63333 14.6667 4 14.6667H12C12.3667 14.6667 12.6667 14.3667 12.6667 14V10.6667C12.6667 10.3 12.9667 10 13.3333 10C13.7 10 14 10.3 14 10.6667V14.6667C14 15.4 13.4 16 12.6667 16H3.33333C2.6 16 2 15.4 2 14.6667V5.33333C2 4.6 2.59333 4 3.33333 4H7.33333C7.7 4 8 4.3 8 4.66667C8 5.03333 7.7 5.33333 7.33333 5.33333H4C3.63333 5.33333 3.33333 5.63333 3.33333 6V14ZM10 5.33333C9.63334 5.33333 9.33334 5.03333 9.33334 4.66667C9.33334 4.3 9.63334 4 10 4H13.3333C13.7 4 14 4.3 14 4.66667V8C14 8.36667 13.7 8.66667 13.3333 8.66667C12.9667 8.66667 12.6667 8.36667 12.6667 8V6.27333L6.58001 12.36C6.32001 12.62 5.90001 12.62 5.64001 12.36C5.38001 12.1 5.38001 11.68 5.64001 11.42L11.7267 5.33333H10Z" />
          </g>

        </symbol>

        <symbol viewBox="0 0 14 14" id="info-p">

          <g>
            <path fill-rule="evenodd" clip-rule="evenodd" d="M7.00016 0.333374C3.32016 0.333374 0.333496 3.32004 0.333496 7.00004C0.333496 10.68 3.32016 13.6667 7.00016 13.6667C10.6802 13.6667 13.6668 10.68 13.6668 7.00004C13.6668 3.32004 10.6802 0.333374 7.00016 0.333374ZM7.00016 10.3334C6.6335 10.3334 6.3335 10.0334 6.3335 9.66671V7.00004C6.3335 6.63337 6.6335 6.33337 7.00016 6.33337C7.36683 6.33337 7.66683 6.63337 7.66683 7.00004V9.66671C7.66683 10.0334 7.36683 10.3334 7.00016 10.3334ZM6.3335 5.00004H7.66683V3.66671H6.3335V5.00004Z" />
          </g>

        </symbol>

        <symbol viewBox="0 0 18 18" id="world">

          <g>
            <path fill-rule="evenodd" clip-rule="evenodd" d="M9.00033 0.666626C4.40033 0.666626 0.666992 4.39996 0.666992 8.99996C0.666992 13.6 4.40033 17.3333 9.00033 17.3333C13.6003 17.3333 17.3337 13.6 17.3337 8.99996C17.3337 4.39996 13.6003 0.666626 9.00033 0.666626ZM8.16699 15.6083C4.87533 15.2 2.33366 12.4 2.33366 8.99996C2.33366 8.48329 2.40033 7.99163 2.50866 7.50829L6.50033 11.5V12.3333C6.50033 13.25 7.25033 14 8.16699 14V15.6083ZM12.3337 12.3333C13.0837 12.3333 13.7003 12.8166 13.917 13.4916C15.0003 12.3083 15.667 10.7333 15.667 8.99996C15.667 6.20829 13.942 3.81663 11.5003 2.82496V3.16663C11.5003 4.08329 10.7503 4.83329 9.83366 4.83329H8.16699V6.49996C8.16699 6.95829 7.79199 7.33329 7.33366 7.33329H5.66699V8.99996H10.667C11.1253 8.99996 11.5003 9.37496 11.5003 9.83329V12.3333H12.3337Z"/>
          </g>

        </symbol>

        <symbol viewBox="0 0 12 16" id="under-l">

          <g>
            <path d="M6.00001 12.1667C8.75834 12.1667 11 9.925 11 7.16667V0.5H8.91667V7.16667C8.91667 8.775 7.60834 10.0833 6.00001 10.0833C4.39167 10.0833 3.08334 8.775 3.08334 7.16667V0.5H1.00001V7.16667C1.00001 9.925 3.24167 12.1667 6.00001 12.1667ZM0.166672 13.8333V15.5H11.8333V13.8333H0.166672Z"/>
          </g>

        </symbol>

        <symbol viewBox="0 0 10 12" id="under-i">

          <g>
<path d="M3.33333 0.333374V2.83337H5.175L2.325 9.50004H0V12H6.66667V9.50004H4.825L7.675 2.83337H10V0.333374H3.33333Z" />
          </g>

        </symbol>

        <symbol viewBox="0 0 17 14" id="under-numb">

          <g>
<path d="M0.666666 11.1667H2.33333V11.5834H1.5V12.4167H2.33333V12.8334H0.666666V13.6667H3.16667V10.3334H0.666666V11.1667ZM1.5 3.66671H2.33333V0.333374H0.666666V1.16671H1.5V3.66671ZM0.666666 6.16671H2.16667L0.666666 7.91671V8.66671H3.16667V7.83337H1.66667L3.16667 6.08337V5.33337H0.666666V6.16671ZM4.83333 1.16671V2.83337H16.5V1.16671H4.83333ZM4.83333 12.8334H16.5V11.1667H4.83333V12.8334ZM4.83333 7.83337H16.5V6.16671H4.83333V7.83337Z" />
          </g>

        </symbol>


        <symbol viewBox="0 0 10 12" id="under-b">

          <g>
            <path d="M8 5.99171C8.80833 5.43337 9.37499 4.51671 9.37499 3.66671C9.37499 1.78337 7.91666 0.333374 6.04166 0.333374H0.833328V12H6.69999C8.44166 12 9.79166 10.5834 9.79166 8.84171C9.79166 7.57504 9.075 6.49171 8 5.99171ZM3.33333 2.41671H5.83333C6.52499 2.41671 7.08333 2.97504 7.08333 3.66671C7.08333 4.35837 6.52499 4.91671 5.83333 4.91671H3.33333V2.41671ZM6.24999 9.91671H3.33333V7.41671H6.24999C6.94166 7.41671 7.49999 7.97504 7.49999 8.66671C7.49999 9.35837 6.94166 9.91671 6.24999 9.91671Z" />
          </g>

        </symbol>


        <symbol viewBox="0 0 16 14" id="under-lin">

          <g>
            <path d="M1.33333 5.75C0.641666 5.75 0.083333 6.30833 0.083333 7C0.083333 7.69167 0.641666 8.25 1.33333 8.25C2.025 8.25 2.58333 7.69167 2.58333 7C2.58333 6.30833 2.025 5.75 1.33333 5.75ZM1.33333 0.75C0.641666 0.75 0.083333 1.30833 0.083333 2C0.083333 2.69167 0.641666 3.25 1.33333 3.25C2.025 3.25 2.58333 2.69167 2.58333 2C2.58333 1.30833 2.025 0.75 1.33333 0.75ZM1.33333 10.75C0.641666 10.75 0.083333 11.3167 0.083333 12C0.083333 12.6833 0.65 13.25 1.33333 13.25C2.01667 13.25 2.58333 12.6833 2.58333 12C2.58333 11.3167 2.025 10.75 1.33333 10.75ZM3.83333 12.8333H15.5V11.1667H3.83333V12.8333ZM3.83333 7.83333H15.5V6.16667H3.83333V7.83333ZM3.83333 1.16667V2.83333H15.5V1.16667H3.83333Z"/>
          </g>

        </symbol>

        <symbol viewBox="0 0 16 16" id="under-img">

          <g>
<path d="M15.5 13.8333V2.16667C15.5 1.25 14.75 0.5 13.8333 0.5H2.16667C1.25 0.5 0.5 1.25 0.5 2.16667V13.8333C0.5 14.75 1.25 15.5 2.16667 15.5H13.8333C14.75 15.5 15.5 14.75 15.5 13.8333ZM5.08333 9.25L7.16667 11.7583L10.0833 8L13.8333 13H2.16667L5.08333 9.25Z" />
          </g>

        </symbol>


        <symbol viewBox="0 0 12 12" id="linked">

          <g>
<path fill-rule="evenodd" clip-rule="evenodd" d="M1.33333 10C1.33333 10.3667 1.63333 10.6667 2 10.6667H10C10.3667 10.6667 10.6667 10.3667 10.6667 10V6.66667C10.6667 6.3 10.9667 6 11.3333 6C11.7 6 12 6.3 12 6.66667V10.6667C12 11.4 11.4 12 10.6667 12H1.33333C0.6 12 0 11.4 0 10.6667V1.33333C0 0.6 0.593333 0 1.33333 0H5.33333C5.7 0 6 0.3 6 0.666667C6 1.03333 5.7 1.33333 5.33333 1.33333H2C1.63333 1.33333 1.33333 1.63333 1.33333 2V10ZM8.00001 1.33333C7.63334 1.33333 7.33334 1.03333 7.33334 0.666667C7.33334 0.3 7.63334 0 8.00001 0H11.3333C11.7 0 12 0.3 12 0.666667V4C12 4.36667 11.7 4.66667 11.3333 4.66667C10.9667 4.66667 10.6667 4.36667 10.6667 4V2.27333L4.58001 8.36C4.32001 8.62 3.90001 8.62 3.64001 8.36C3.38001 8.1 3.38001 7.68 3.64001 7.42L9.72667 1.33333H8.00001Z"/>
          </g>

        </symbol>

                <symbol viewBox="0 0 12 10" id="under-ci">

          <g>
<path d="M1.00001 9.16671H3.50001L5.16667 5.83337V0.833374H0.166672V5.83337H2.66667L1.00001 9.16671ZM7.66667 9.16671H10.1667L11.8333 5.83337V0.833374H6.83334V5.83337H9.33334L7.66667 9.16671Z"/>
          </g>

        </symbol>

        <symbol viewBox="0 0 16 14" id="under-t">

          <g>
<path d="M1.72499 0.166626L0.666656 1.22496L6.47499 7.03329L4.41666 11.8333H6.91666L8.22499 8.78329L12.9417 13.5L14 12.4416L1.95832 0.391626L1.72499 0.166626ZM3.99999 0.166626V0.316626L6.34999 2.66663H8.34999L7.74999 4.06663L9.49999 5.81663L10.8417 2.66663H15.6667V0.166626H3.99999Z"/>
          </g>

        </symbol>



                <symbol viewBox="0 0 18 18" id="loop-t">

          <g>
<path fill-rule="evenodd" clip-rule="evenodd" d="M12.1866 11.4716H12.9766L17.2166 15.7316C17.6266 16.1416 17.6266 16.8116 17.2166 17.2216C16.8066 17.6316 16.1366 17.6316 15.7266 17.2216L11.4766 12.9716V12.1816L11.2066 11.9016C9.80658 13.1016 7.89658 13.7216 5.86658 13.3816C3.08658 12.9116 0.866578 10.5916 0.526578 7.79157C0.00657776 3.56157 3.56658 0.00157288 7.79658 0.521573C10.5966 0.861573 12.9166 3.08157 13.3866 5.86157C13.7266 7.89157 13.1066 9.80157 11.9066 11.2016L12.1866 11.4716ZM2.47658 6.97157C2.47658 9.46157 4.48658 11.4716 6.97658 11.4716C9.46658 11.4716 11.4766 9.46157 11.4766 6.97157C11.4766 4.48157 9.46658 2.47157 6.97658 2.47157C4.48658 2.47157 2.47658 4.48157 2.47658 6.97157Z" />
          </g>

        </symbol>

                <symbol viewBox="0 0 20 20" id="search-t">

          <g>
<path fill-rule="evenodd" clip-rule="evenodd" d="M17.5022 10C17.5022 10.34 17.4722 10.66 17.4322 10.98L19.5422 12.63C19.7322 12.78 19.7822 13.05 19.6622 13.27L17.6622 16.73C17.5422 16.95 17.2822 17.04 17.0522 16.95L14.5622 15.95C14.0422 16.34 13.4822 16.68 12.8722 16.93L12.4922 19.58C12.4622 19.82 12.2522 20 12.0022 20H8.00222C7.75222 20 7.54222 19.82 7.51222 19.58L7.13222 16.93C6.52222 16.68 5.96222 16.35 5.44222 15.95L2.95222 16.95C2.73222 17.03 2.46222 16.95 2.34222 16.73L0.34222 13.27C0.22222 13.05 0.27222 12.78 0.46222 12.63L2.57222 10.98C2.53222 10.66 2.50222 10.33 2.50222 10C2.50222 9.67 2.53222 9.34 2.57222 9.02L0.46222 7.37C0.27222 7.22 0.21222 6.95 0.34222 6.73L2.34222 3.27C2.46222 3.05 2.72222 2.96 2.95222 3.05L5.44222 4.05C5.96222 3.66 6.52222 3.32 7.13222 3.07L7.51222 0.42C7.54222 0.18 7.75222 0 8.00222 0H12.0022C12.2522 0 12.4622 0.18 12.4922 0.42L12.8722 3.07C13.4822 3.32 14.0422 3.65 14.5622 4.05L17.0522 3.05C17.2722 2.97 17.5422 3.05 17.6622 3.27L19.6622 6.73C19.7822 6.95 19.7322 7.22 19.5422 7.37L17.4322 9.02C17.4722 9.34 17.5022 9.66 17.5022 10ZM6.50222 10C6.50222 11.93 8.07222 13.5 10.0022 13.5C11.9322 13.5 13.5022 11.93 13.5022 10C13.5022 8.07 11.9322 6.5 10.0022 6.5C8.07222 6.5 6.50222 8.07 6.50222 10Z"/>
          </g>

        </symbol>


        <symbol viewBox="0 0 16 16" id="under-bord">

          <g>
<path fill-rule="evenodd" clip-rule="evenodd" d="M0.5 2.16667V13.8333C0.5 14.75 1.25 15.5 2.16667 15.5H13.8333C14.75 15.5 15.5 14.75 15.5 13.8333V2.16667C15.5 1.25 14.75 0.5 13.8333 0.5H2.16667C1.25 0.5 0.5 1.25 0.5 2.16667ZM7.16667 13.8333H3C2.54167 13.8333 2.16667 13.4583 2.16667 13V8.83333H6.33333C6.79167 8.83333 7.16667 9.20833 7.16667 9.66667V13.8333ZM2.16667 7.16667H6.33333C6.79167 7.16667 7.16667 6.79167 7.16667 6.33333V2.16667H3C2.54167 2.16667 2.16667 2.54167 2.16667 3V7.16667ZM13 13.8333H8.83333V9.66667C8.83333 9.20833 9.20833 8.83333 9.66667 8.83333H13.8333V13C13.8333 13.4583 13.4583 13.8333 13 13.8333ZM9.66667 7.16667H13.8333V3C13.8333 2.54167 13.4583 2.16667 13 2.16667H8.83333V6.33333C8.83333 6.79167 9.20833 7.16667 9.66667 7.16667Z"/>
          </g>

        </symbol>


        <symbol viewBox="0 0 12 12" id="logout">

          <g>

            <path fill-rule="evenodd" clip-rule="evenodd" d="M1.33333 0H10.6667C11.4 0 12 0.6 12 1.33333V10.6667C12 11.4 11.4 12 10.6667 12H1.33333C0.6 12 0 11.4 0 10.6667V8.66667C0 8.3 0.3 8 0.666667 8C1.03333 8 1.33333 8.3 1.33333 8.66667V10C1.33333 10.3667 1.63333 10.6667 2 10.6667H10C10.3667 10.6667 10.6667 10.3667 10.6667 10V2C10.6667 1.63333 10.3667 1.33333 10 1.33333H2C1.63333 1.33333 1.33333 1.63333 1.33333 2V3.33333C1.33333 3.7 1.03333 4 0.666667 4C0.3 4 0 3.7 0 3.33333V1.33333C0 0.6 0.593333 0 1.33333 0ZM8.52667 6.46667L6.13333 8.86001C5.87333 9.12 5.45333 9.12 5.19333 8.86001C4.94 8.60667 4.93333 8.18001 5.19333 7.92L6.44667 6.66667H0.666667C0.3 6.66667 0 6.36667 0 6C0 5.63334 0.3 5.33334 0.666667 5.33334H6.44667L5.19333 4.07334C4.93333 3.81334 4.93333 3.39334 5.19333 3.13334C5.31789 3.0085 5.48699 2.93835 5.66333 2.93835C5.83968 2.93835 6.00878 3.0085 6.13333 3.13334L8.52667 5.52667C8.78667 5.78667 8.78667 6.20667 8.52667 6.46667Z"/>

          </g>

        </symbol>


        <symbol viewBox="0 0 18 18" id="copyrite">

          <g>
            <path fill-rule="evenodd" clip-rule="evenodd" d="M9.00001 0.666626C4.40001 0.666626 0.666672 4.39996 0.666672 8.99996C0.666672 13.6 4.40001 17.3333 9.00001 17.3333C13.6 17.3333 17.3333 13.6 17.3333 8.99996C17.3333 4.39996 13.6 0.666626 9.00001 0.666626ZM7.40001 8.04996C7.44167 7.77496 7.53334 7.5333 7.65001 7.32496C7.76667 7.11663 7.93334 6.94163 8.14167 6.8083C8.34167 6.6833 8.59167 6.62496 8.90001 6.61663C9.09167 6.62496 9.26667 6.6583 9.425 6.72496C9.59167 6.79996 9.74167 6.89996 9.85834 7.02496C9.97501 7.14996 10.0667 7.29996 10.1417 7.46663C10.2167 7.6333 10.25 7.81663 10.2583 7.99996H11.75C11.7333 7.6083 11.6583 7.24996 11.5167 6.92496C11.375 6.59996 11.1833 6.31663 10.9333 6.0833C10.6833 5.84996 10.3833 5.66663 10.0333 5.5333C9.68334 5.39996 9.3 5.34163 8.87501 5.34163C8.33334 5.34163 7.85834 5.4333 7.45834 5.62496C7.05834 5.81663 6.72501 6.06663 6.45834 6.39163C6.19167 6.71663 5.99167 7.09163 5.86667 7.52496C5.74167 7.9583 5.66667 8.4083 5.66667 8.89163V9.11663C5.66667 9.59996 5.73334 10.05 5.85834 10.4833C5.98334 10.9166 6.18334 11.2916 6.45001 11.6083C6.71667 11.925 7.05 12.1833 7.45001 12.3666C7.85001 12.55 8.32501 12.65 8.86667 12.65C9.25834 12.65 9.62501 12.5833 9.96667 12.4583C10.3083 12.3333 10.6083 12.1583 10.8667 11.9333C11.125 11.7083 11.3333 11.45 11.4833 11.15C11.6333 10.85 11.725 10.5333 11.7333 10.1916H10.2417C10.2333 10.3666 10.1917 10.525 10.1167 10.675C10.0417 10.825 9.94167 10.95 9.81667 11.0583C9.69167 11.1666 9.55 11.25 9.38334 11.3083C9.22501 11.3666 9.05834 11.3833 8.88334 11.3916C8.58334 11.3833 8.33334 11.325 8.14167 11.2C7.93334 11.0666 7.76667 10.8916 7.65001 10.6833C7.53334 10.475 7.44167 10.225 7.40001 9.94996C7.35834 9.67496 7.33334 9.39163 7.33334 9.11663V8.89163C7.33334 8.59996 7.35834 8.32496 7.40001 8.04996ZM2.33334 8.99996C2.33334 12.675 5.32501 15.6666 9 15.6666C12.675 15.6666 15.6667 12.675 15.6667 8.99996C15.6667 5.32496 12.675 2.33329 9 2.33329C5.32501 2.33329 2.33334 5.32496 2.33334 8.99996Z" />
          </g>

        </symbol>

        <symbol viewBox="0 0 14 14" id="open-qest">

          <g>
            <path fill-rule="evenodd" clip-rule="evenodd" d="M0.333008 6.99998C0.333008 3.31998 3.31967 0.333313 6.99967 0.333313C10.6797 0.333313 13.6663 3.31998 13.6663 6.99998C13.6663 10.68 10.6797 13.6666 6.99967 13.6666C3.31967 13.6666 0.333008 10.68 0.333008 6.99998ZM1.66634 6.99998C1.66634 9.93998 4.05967 12.3333 6.99967 12.3333C9.93967 12.3333 12.333 9.93998 12.333 6.99998C12.333 4.05998 9.93967 1.66665 6.99967 1.66665C4.05967 1.66665 1.66634 4.05998 1.66634 6.99998ZM7.66634 9.66665V11H6.33301V9.66665H7.66634ZM4.45302 4.88664C4.81968 3.67331 6.03302 2.82664 7.40635 3.02664C8.56635 3.19998 9.47968 4.17998 9.63968 5.33998C9.79174 6.41567 9.19684 6.93471 8.62265 7.43567C8.51715 7.52771 8.41235 7.61915 8.31302 7.71331C8.23302 7.78664 8.15968 7.85998 8.09302 7.93998C8.08968 7.94331 8.08635 7.94831 8.08302 7.95331C8.07968 7.95831 8.07635 7.96331 8.07302 7.96664C8.00635 8.04664 7.93968 8.13331 7.88635 8.22664C7.87968 8.23664 7.87468 8.24664 7.86968 8.25664C7.86468 8.26664 7.85968 8.27664 7.85302 8.28664C7.73968 8.48664 7.66635 8.71998 7.66635 8.99998H6.33302C6.33302 8.66664 6.38635 8.39331 6.46635 8.16664C6.46927 8.15788 6.47091 8.15039 6.4724 8.14362C6.4743 8.13495 6.47594 8.12747 6.47968 8.11998C6.48302 8.10998 6.48802 8.10164 6.49302 8.09331C6.49802 8.08498 6.50302 8.07664 6.50635 8.06664C6.55302 7.94664 6.61302 7.83331 6.67302 7.73331C6.67635 7.72664 6.67968 7.72164 6.68302 7.71664C6.68635 7.71164 6.68968 7.70664 6.69302 7.69998C6.69302 7.69664 6.69468 7.69498 6.69635 7.69331C6.69802 7.69164 6.69968 7.68998 6.69968 7.68664C6.92674 7.34469 7.23125 7.11051 7.51602 6.8915C7.92524 6.57678 8.29371 6.29341 8.33302 5.76664C8.38635 5.11998 7.91968 4.49998 7.28635 4.36664C6.59968 4.21998 5.96635 4.62664 5.75302 5.21998C5.65968 5.47331 5.43968 5.66664 5.16635 5.66664H5.03302C4.62635 5.66664 4.33302 5.27331 4.45302 4.88664Z" />
          </g>

        </symbol>


        <symbol viewBox="0 0 14 12" id="massage">

          <g>
            <path fill-rule="evenodd" clip-rule="evenodd" d="M1.66683 0.666504H12.3335C13.0668 0.666504 13.6668 1.2665 13.6668 1.99984V9.99984C13.6668 10.7332 13.0668 11.3332 12.3335 11.3332H1.66683C0.933496 11.3332 0.333496 10.7332 0.333496 9.99984V1.99984C0.333496 1.2665 0.933496 0.666504 1.66683 0.666504ZM7.70683 6.2265L12.0668 3.49983C12.2335 3.39317 12.3335 3.21317 12.3335 3.01983C12.3335 2.57317 11.8468 2.3065 11.4668 2.53983L7.00016 5.33317L2.5335 2.53983C2.1535 2.3065 1.66683 2.57317 1.66683 3.01983C1.66683 3.21317 1.76683 3.39317 1.9335 3.49983L6.2935 6.2265C6.72683 6.49983 7.2735 6.49983 7.70683 6.2265Z" />
          </g>

        </symbol>

        <symbol viewBox="0 0 12 14" id="block">

          <g>
            <path fill-rule="evenodd" clip-rule="evenodd" d="M9.99984 4.66667H9.33317V3.33333C9.33317 1.49333 7.83984 0 5.99984 0C4.15984 0 2.6665 1.49333 2.6665 3.33333V4.66667H1.99984C1.2665 4.66667 0.666504 5.26667 0.666504 6V12.6667C0.666504 13.4 1.2665 14 1.99984 14H9.99984C10.7332 14 11.3332 13.4 11.3332 12.6667V6C11.3332 5.26667 10.7332 4.66667 9.99984 4.66667ZM5.99984 10.6667C5.2665 10.6667 4.6665 10.0667 4.6665 9.33333C4.6665 8.6 5.2665 8 5.99984 8C6.73317 8 7.33317 8.6 7.33317 9.33333C7.33317 10.0667 6.73317 10.6667 5.99984 10.6667ZM3.99984 3.33333V4.66667H7.99984V3.33333C7.99984 2.22667 7.1065 1.33333 5.99984 1.33333C4.89317 1.33333 3.99984 2.22667 3.99984 3.33333Z"/>
          </g>

        </symbol>

        <symbol viewBox="0 0 14 6" id="returne">

          <g>
              <path d="M7.31055 0.333496C5.54388 0.333496 3.94388 0.993496 2.71055 2.06683L1.45055 0.806829C1.03055 0.386829 0.310547 0.680163 0.310547 1.2735V5.00016C0.310547 5.36683 0.610547 5.66683 0.977214 5.66683H4.70388C5.29721 5.66683 5.59721 4.94683 5.17721 4.52683L3.90388 3.2535C4.83055 2.48016 6.01055 2.00016 7.31721 2.00016C9.42388 2.00016 11.2439 3.22683 12.1105 5.00016C12.2905 5.3735 12.7172 5.56016 13.1105 5.42683C13.5839 5.2735 13.8239 4.7335 13.6105 4.28016C12.4639 1.94683 10.0772 0.333496 7.31055 0.333496Z"/>
          </g>

        </symbol>

        <symbol viewBox="0 0 30 30" id="arrow-r">

          <g>
            <path d="M29.96 14.6L17.4 2L13.56 5.96L19.76 11.92H0V17.44H19.6L13.56 23.28L17.4 27.24L29.96 14.6Z" fill="#979CBC"/>
          </g>

        </symbol>

    </defs>
</svg>

