<svg width="55" height="55" viewBox="0 0 55 55" fill="none" xmlns="http://www.w3.org/2000/svg">
<path fill-rule="evenodd" clip-rule="evenodd" d="M27.5 55C42.6878 55 55 42.6878 55 27.5C55 12.3122 42.6878 0 27.5 0C12.3122 0 0 12.3122 0 27.5C0 42.6878 12.3122 55 27.5 55ZM27.4997 51.1813C31.1377 51.1813 34.584 50.361 37.6639 48.8953L27.6102 36.3602L17.4958 48.9708C20.5348 50.3892 23.9247 51.1813 27.4997 51.1813ZM38.156 49.5088L38.1357 49.4835C34.9207 51.0418 31.3123 51.9156 27.4997 51.9156C14.0152 51.9156 3.08385 40.9843 3.08385 27.4998C3.08385 14.0153 14.0152 3.0839 27.4997 3.0839C40.9842 3.0839 51.9156 14.0153 51.9156 27.4998C51.9156 29.3951 51.6996 31.24 51.291 33.0111L51.3065 33.0186L51.2892 33.0187C49.612 40.2777 44.6978 46.2979 38.1489 49.4771L38.156 49.5088ZM51.1813 27.4998C51.1813 29.2799 50.9849 31.0142 50.6125 32.6821L36.1408 25.663L46.2034 12.9725C49.3233 16.9836 51.1813 22.0247 51.1813 27.4998ZM31.4067 19.7266L46.0198 12.7395C41.7249 7.35773 35.1333 3.88959 27.7292 3.8193L31.4067 19.7266ZM9.04088 12.6631C13.3799 7.2716 20.0326 3.82079 27.4914 3.81822L23.8137 19.7266L9.04088 12.6631ZM3.81816 27.4998C3.81816 21.9608 5.71982 16.8659 8.90587 12.8324L19.0795 25.663L4.40868 32.7786C4.02223 31.0811 3.81816 29.3143 3.81816 27.4998ZM17.2155 48.8377C10.8917 45.7843 6.1322 40.0024 4.46501 33.0202L20.7691 33.0657L17.2155 48.8377ZM37.9829 48.7405C44.2073 45.6626 48.8845 39.9293 50.5343 33.0208L34.4512 33.0657L37.9829 48.7405Z" fill="#0D0222"/>
</svg>
