<svg width="172" height="100" viewBox="0 0 172 100" fill="none" xmlns="http://www.w3.org/2000/svg">
<path fill-rule="evenodd" clip-rule="evenodd" d="M105.5 20C105.5 31.0457 96.5457 40 85.5 40C74.4543 40 65.5 31.0457 65.5 20C65.5 8.95431 74.4543 0 85.5 0C96.5457 0 105.5 8.95431 105.5 20ZM85.5001 3.03519L85.5113 3.03519L82.9633 14.0083L82.8671 14.4151L82.491 14.2358L72.2947 9.36128C72.6734 8.89139 73.0786 8.4399 73.5093 8.00918C76.6898 4.82867 81.0022 3.03982 85.5001 3.03519ZM88.1853 13.9952L85.6631 3.03593C88.9628 3.06677 92.1833 4.05911 94.9293 5.89319C96.3861 6.86621 97.6753 8.05333 98.7576 9.40688L88.6576 14.2226L88.2815 14.4019L88.1853 13.9952ZM91.9159 18.3206L98.8712 9.5505C99.8116 10.7529 100.59 12.0831 101.181 13.5085C102.466 16.6094 102.802 20.0217 102.148 23.3138C102.122 23.4421 102.095 23.5699 102.067 23.6974L92.034 18.8323L91.6579 18.6486L91.9159 18.3206ZM90.8663 23.923L102.022 23.8936C101.3 26.9605 99.7369 29.77 97.5035 32.0034C96.1765 33.3304 94.6461 34.4207 92.9791 35.2386L90.5207 24.3298L90.4289 23.923H90.8663ZM85.8367 26.5996L92.8112 35.3198C91.5458 35.9236 90.2037 36.3713 88.8139 36.6477C85.5218 37.3023 82.1095 36.9659 79.0086 35.681C78.765 35.58 78.5241 35.4736 78.2861 35.3617L85.3119 26.5996L85.5743 26.276L85.8367 26.5996ZM80.606 24.3342L78.1369 35.2907C75.411 33.9769 73.0804 31.9551 71.3933 29.4292C70.2609 27.7338 69.4494 25.8575 68.9869 23.8934L80.2605 23.9274H80.6979L80.606 24.3342ZM79.1147 18.8323L68.9558 23.7585C68.6774 22.5314 68.535 21.2711 68.5353 20C68.5393 16.1565 69.846 12.4484 72.2107 9.46632L79.2328 18.3206L79.4908 18.6486L79.1147 18.8323ZM85.5001 2.48413C82.0347 2.48413 78.6472 3.51178 75.7659 5.43713C72.8846 7.36247 70.639 10.099 69.3131 13.3007C67.9872 16.5023 67.6405 20.0253 68.3168 23.424C68.9932 26.8227 70.6623 29.9445 73.113 32.3946C75.5637 34.8447 78.6859 36.5129 82.0847 37.1885C85.4836 37.864 89.0065 37.5164 92.2078 36.1897C95.4092 34.8629 98.1451 32.6167 100.07 29.7349C101.994 26.8531 103.021 23.4653 103.02 20C103.02 17.7004 102.567 15.4234 101.686 13.2993C100.805 11.1751 99.5144 9.24539 97.8872 7.62058C96.2599 5.99577 94.3283 4.70772 92.2028 3.83011C90.0773 2.9525 87.7996 2.50255 85.5001 2.506V2.48413Z" fill="#0D0222"/>
<path d="M17.84 71.26C21.04 71.26 24.06 69.3 24.06 66.2C24.06 63.1 22.12 61.66 18.86 60.9L17.66 60.62C15.98 60.22 14.84 59.4 14.84 57.86C14.84 56.46 15.94 55.62 17.62 55.62C19.52 55.62 21.34 56.52 22.74 61.3H22.86L22.44 55.48H22.34L21.32 56.5C20.46 55.78 19 55.42 17.64 55.42C14.66 55.42 12 57.24 12 60.3C12 62.92 13.66 64.78 16.44 65.42L17.66 65.7C19.8 66.18 21.12 66.96 21.12 68.62C21.12 70.2 19.86 71.06 17.86 71.06C15.54 71.06 13.56 69.66 12.3 64.84H12.18L12.62 71.2H12.72L13.82 70.22C14.58 70.78 16.14 71.26 17.84 71.26ZM24.8691 71H31.6491V70.8H30.3891V64C30.3891 62.32 30.6491 61.6 31.3691 61.6C32.0891 61.6 32.3291 62.32 32.3291 64V71H37.8491V70.8H36.5891V64.22C36.5891 61.94 35.5691 60.5 33.4091 60.5C32.0091 60.5 30.7091 61.02 30.3891 62.36V55.84H24.8691V56.04H26.1291V70.8H24.8691V71ZM41.3569 71.26C42.5969 71.26 43.7569 70.72 44.0169 69.2L44.3769 71H49.4769V70.8H48.2169V63.8C48.2169 60.96 46.6569 60.42 44.6569 60.42C42.5769 60.42 41.5369 61.08 40.4569 61.58C39.5569 62 38.3769 62.82 38.3769 63.84C38.3769 64.7 39.1969 65.08 40.1569 65.08C40.7569 65.08 41.8169 64.76 42.0969 64.08C41.3169 61.04 42.4769 60.82 42.9169 60.82C43.7169 60.82 44.0169 61.78 44.0169 62.78C44.0169 63.52 43.8769 63.82 43.5769 64.18C43.2769 64.56 42.7569 65 42.1969 65.32C40.6369 66.26 38.3569 66.28 38.3569 68.52C38.3569 70.02 39.6569 71.26 41.3569 71.26ZM43.4369 69.8C42.7569 69.8 42.5169 68.26 42.5169 66.94C42.5169 65.88 42.9369 65.2 43.6369 64.4C43.7569 64.26 43.8969 64.1 43.9969 63.94L43.9369 68.38C43.9169 69.26 43.8169 69.8 43.4369 69.8ZM57.0575 70.8H55.1975V63.76L55.5375 63.6L57.8375 65.04C58.5575 64.96 59.3375 64.18 59.3375 62.62C59.3375 61.26 58.6175 60.52 57.6975 60.52C56.7375 60.52 56.0775 61.68 55.1975 63.66V60.1L49.6775 62.72V62.8L50.9375 63.94V70.8H49.6775V71H57.0575V70.8ZM59.438 75.96H66.818V75.76H64.958V69.14C65.238 70.4 66.358 71.26 67.738 71.26C69.818 71.26 71.898 69.36 71.898 65.88C71.898 62.4 69.818 60.5 67.738 60.5C66.358 60.5 65.238 61.36 64.958 62.62V60.1L59.438 62.72V62.8L60.698 63.94V75.76H59.438V75.96ZM65.938 70.12C65.518 70.12 64.958 69.38 64.958 68.14V63.62C64.958 62.38 65.518 61.64 65.938 61.64C66.478 61.64 67.078 62.52 67.078 65.88C67.078 69.24 66.478 70.12 65.938 70.12ZM79.2658 71.26C82.4658 71.26 85.4858 69.3 85.4858 66.2C85.4858 63.1 83.5458 61.66 80.2858 60.9L79.0858 60.62C77.4058 60.22 76.2658 59.4 76.2658 57.86C76.2658 56.46 77.3658 55.62 79.0458 55.62C80.9458 55.62 82.7658 56.52 84.1658 61.3H84.2858L83.8658 55.48H83.7658L82.7458 56.5C81.8858 55.78 80.4258 55.42 79.0658 55.42C76.0858 55.42 73.4258 57.24 73.4258 60.3C73.4258 62.92 75.0858 64.78 77.8658 65.42L79.0858 65.7C81.2258 66.18 82.5458 66.96 82.5458 68.62C82.5458 70.2 81.2858 71.06 79.2858 71.06C76.9658 71.06 74.9858 69.66 73.7258 64.84H73.6058L74.0458 71.2H74.1458L75.2458 70.22C76.0058 70.78 77.5658 71.26 79.2658 71.26ZM86.2948 71H93.0748V70.8H91.8148V64C91.8148 62.32 92.0748 61.6 92.7948 61.6C93.5148 61.6 93.7548 62.32 93.7548 64V71H99.2748V70.8H98.0148V64.22C98.0148 61.94 96.9948 60.5 94.8348 60.5C93.4348 60.5 92.1348 61.02 91.8148 62.36V55.84H86.2948V56.04H87.5548V70.8H86.2948V71ZM102.783 71.26C104.023 71.26 105.183 70.72 105.443 69.2L105.803 71H110.903V70.8H109.643V63.8C109.643 60.96 108.083 60.42 106.083 60.42C104.003 60.42 102.963 61.08 101.883 61.58C100.983 62 99.8027 62.82 99.8027 63.84C99.8027 64.7 100.623 65.08 101.583 65.08C102.183 65.08 103.243 64.76 103.523 64.08C102.743 61.04 103.903 60.82 104.343 60.82C105.143 60.82 105.443 61.78 105.443 62.78C105.443 63.52 105.303 63.82 105.003 64.18C104.703 64.56 104.183 65 103.623 65.32C102.063 66.26 99.7827 66.28 99.7827 68.52C99.7827 70.02 101.083 71.26 102.783 71.26ZM104.863 69.8C104.183 69.8 103.943 68.26 103.943 66.94C103.943 65.88 104.363 65.2 105.063 64.4C105.183 64.26 105.323 64.1 105.423 63.94L105.363 68.38C105.343 69.26 105.243 69.8 104.863 69.8ZM118.483 70.8H116.623V63.76L116.963 63.6L119.263 65.04C119.983 64.96 120.763 64.18 120.763 62.62C120.763 61.26 120.043 60.52 119.123 60.52C118.163 60.52 117.503 61.68 116.623 63.66V60.1L111.103 62.72V62.8L112.363 63.94V70.8H111.103V71H118.483V70.8ZM121.864 71H126.124V65.6L129.144 71H133.924L130.724 65.28H126.184L127.184 63.76H131.104L132.784 60.96H128.784L126.124 65.02V55.84H120.604V56.04H121.864V71ZM136.579 71.26C137.999 71.26 139.079 70.18 139.079 68.78C139.079 67.46 137.999 66.38 136.579 66.38C135.279 66.38 134.199 67.46 134.199 68.78C134.199 70.18 135.279 71.26 136.579 71.26ZM143.23 59.68C144.61 59.68 145.73 58.56 145.73 57.18C145.73 55.82 144.61 54.72 143.23 54.72C141.87 54.72 140.77 55.82 140.77 57.18C140.77 58.56 141.87 59.68 143.23 59.68ZM145.49 60.1L139.97 62.72V62.8L141.23 63.94V70.8H139.97V71H146.75V70.8H145.49V60.1ZM153.04 71.26C156.8 71.26 158.78 68.76 158.78 65.88C158.78 63 156.8 60.5 153.04 60.5C149.28 60.5 147.3 63 147.3 65.88C147.3 68.76 149.28 71.26 153.04 71.26ZM154.18 70.98C153.36 70.98 152.84 69.52 151.94 66.18C151.38 64.12 151.08 62.76 151.08 61.92C151.08 61.14 151.4 60.78 151.9 60.78C152.72 60.78 153.24 62.24 154.14 65.58C154.7 67.64 155 69 155 69.84C155 70.62 154.68 70.98 154.18 70.98Z" fill="black"/>
<path d="M0.02 99.96H7.4V99.76H5.54V93.14C5.82 94.4 6.94 95.26 8.32 95.26C10.4 95.26 12.48 93.36 12.48 89.88C12.48 86.4 10.4 84.5 8.32 84.5C6.94 84.5 5.82 85.36 5.54 86.62V84.1L0.02 86.72V86.8L1.28 87.94V99.76H0.02V99.96ZM6.52 94.12C6.1 94.12 5.54 93.38 5.54 92.14V87.62C5.54 86.38 6.1 85.64 6.52 85.64C7.06 85.64 7.66 86.52 7.66 89.88C7.66 93.24 7.06 94.12 6.52 94.12ZM20.6278 94.8H18.7678V87.76L19.1078 87.6L21.4078 89.04C22.1278 88.96 22.9078 88.18 22.9078 86.62C22.9078 85.26 22.1878 84.52 21.2678 84.52C20.3078 84.52 19.6478 85.68 18.7678 87.66V84.1L13.2478 86.72V86.8L14.5078 87.94V94.8H13.2478V95H20.6278V94.8ZM29.1102 95.26C32.8702 95.26 34.8502 92.76 34.8502 89.88C34.8502 87 32.8702 84.5 29.1102 84.5C25.3502 84.5 23.3702 87 23.3702 89.88C23.3702 92.76 25.3502 95.26 29.1102 95.26ZM30.2502 94.98C29.4302 94.98 28.9102 93.52 28.0102 90.18C27.4502 88.12 27.1502 86.76 27.1502 85.92C27.1502 85.14 27.4702 84.78 27.9702 84.78C28.7902 84.78 29.3102 86.24 30.2102 89.58C30.7702 91.64 31.0702 93 31.0702 93.84C31.0702 94.62 30.7502 94.98 30.2502 94.98ZM40.3325 95.26C42.0925 95.26 43.7125 94.46 44.5525 93.72L44.4725 93.58C43.9925 93.86 43.4525 94.02 42.9525 94.02C42.0525 94.02 41.2925 93.52 41.2925 92.22V87.08H43.6925L45.2525 84.96H41.2925V82.28H41.1725L34.9325 86.04V86.16H37.0325V92.64C37.0325 94.48 38.2525 95.26 40.3325 95.26ZM50.3717 95.26C52.9117 95.26 55.3717 94 55.6317 89.32H55.4317C55.0717 91.56 53.4717 92.14 52.1117 92.14C49.5917 92.14 48.1917 90.24 48.1517 87.66H55.1717C54.5517 85.34 52.4317 84.5 50.2317 84.5C47.6117 84.5 44.9717 86.94 44.9717 89.94C44.9717 93.28 47.4317 95.26 50.3717 95.26ZM49.8917 84.7C50.7117 84.7 51.1917 85.32 51.1917 86.1C51.1917 86.92 50.6317 87.46 49.4717 87.46H48.1517C48.1517 85.44 48.8717 84.7 49.8917 84.7ZM61.6552 95.26C64.1352 95.26 66.5552 94 66.8152 89.32H66.6152C66.2752 91.52 64.6552 92.14 63.3752 92.14C61.0352 92.14 59.6952 90 59.6952 87.48C59.6952 86.02 60.2352 84.82 61.2552 84.82C62.3152 84.82 63.0552 86.04 62.9352 88.54C64.8752 88.82 66.1152 87.96 66.1152 86.8C66.1152 85.4 64.3952 84.5 62.4952 84.5C59.4952 84.5 56.5152 86.36 56.5152 89.94C56.5152 93.28 58.7752 95.26 61.6552 95.26ZM72.1684 95.26C73.9284 95.26 75.5484 94.46 76.3884 93.72L76.3084 93.58C75.8284 93.86 75.2884 94.02 74.7884 94.02C73.8884 94.02 73.1284 93.52 73.1284 92.22V87.08H75.5284L77.0884 84.96H73.1284V82.28H73.0084L66.7684 86.04V86.16H68.8684V92.64C68.8684 94.48 70.0884 95.26 72.1684 95.26ZM81.5048 95.04C79.4048 95.04 78.7448 93.76 77.2448 90.56H77.1248L77.9648 95.52H78.0648L78.6648 94.76C79.2848 95.04 79.9848 95.24 81.3048 95.24C83.7248 95.24 86.0048 93.84 86.0048 91.36C86.0048 89.7 84.8648 88.26 82.1648 87.8L81.8448 87.74C80.3248 87.48 79.6448 86.86 79.6448 85.94C79.6448 85.18 80.2448 84.74 81.2648 84.74C82.9448 84.74 83.6648 85.58 85.1648 88.8H85.2848L84.4448 83.96H84.3248L83.6648 84.98C83.0448 84.74 82.3048 84.5 81.2648 84.5C79.2248 84.5 77.0048 86 77.0048 88.06C77.0048 89.82 78.2248 91.48 80.6648 91.86L81.0448 91.92C82.2648 92.12 83.2648 92.52 83.2648 93.66C83.2648 94.6 82.3048 95.04 81.5048 95.04ZM96.5966 95.26C99.0766 95.26 101.497 94 101.757 89.32H101.557C101.217 91.52 99.5966 92.14 98.3166 92.14C95.9766 92.14 94.6366 90 94.6366 87.48C94.6366 86.02 95.1766 84.82 96.1966 84.82C97.2566 84.82 97.9966 86.04 97.8766 88.54C99.8166 88.82 101.057 87.96 101.057 86.8C101.057 85.4 99.3366 84.5 97.4366 84.5C94.4366 84.5 91.4566 86.36 91.4566 89.94C91.4566 93.28 93.7166 95.26 96.5966 95.26ZM108.29 95.26C112.05 95.26 114.03 92.76 114.03 89.88C114.03 87 112.05 84.5 108.29 84.5C104.53 84.5 102.55 87 102.55 89.88C102.55 92.76 104.53 95.26 108.29 95.26ZM109.43 94.98C108.61 94.98 108.09 93.52 107.19 90.18C106.63 88.12 106.33 86.76 106.33 85.92C106.33 85.14 106.65 84.78 107.15 84.78C107.97 84.78 108.49 86.24 109.39 89.58C109.95 91.64 110.25 93 110.25 93.84C110.25 94.62 109.93 94.98 109.43 94.98ZM114.732 95H121.512V94.8H120.252V88C120.252 86.32 120.512 85.6 121.232 85.6C121.952 85.6 122.192 86.32 122.192 88V95H127.712V94.8H126.452V88.22C126.452 85.94 125.432 84.5 123.272 84.5C121.872 84.5 120.572 85.02 120.252 86.36V84.1L114.732 86.72V86.8L115.992 87.94V94.8H114.732V95ZM132.676 95.26C134.436 95.26 136.056 94.46 136.896 93.72L136.816 93.58C136.336 93.86 135.796 94.02 135.296 94.02C134.396 94.02 133.636 93.52 133.636 92.22V87.08H136.036L137.596 84.96H133.636V82.28H133.516L127.276 86.04V86.16H129.376V92.64C129.376 94.48 130.596 95.26 132.676 95.26ZM142.715 95.26C145.255 95.26 147.715 94 147.975 89.32H147.775C147.415 91.56 145.815 92.14 144.455 92.14C141.935 92.14 140.535 90.24 140.495 87.66H147.515C146.895 85.34 144.775 84.5 142.575 84.5C139.955 84.5 137.315 86.94 137.315 89.94C137.315 93.28 139.775 95.26 142.715 95.26ZM142.235 84.7C143.055 84.7 143.535 85.32 143.535 86.1C143.535 86.92 142.975 87.46 141.815 87.46H140.495C140.495 85.44 141.215 84.7 142.235 84.7ZM148.619 95H155.399V94.8H154.139V88C154.139 86.32 154.399 85.6 155.119 85.6C155.839 85.6 156.079 86.32 156.079 88V95H161.599V94.8H160.339V88.22C160.339 85.94 159.319 84.5 157.159 84.5C155.759 84.5 154.459 85.02 154.139 86.36V84.1L148.619 86.72V86.8L149.879 87.94V94.8H148.619V95ZM166.563 95.26C168.323 95.26 169.943 94.46 170.783 93.72L170.703 93.58C170.223 93.86 169.683 94.02 169.183 94.02C168.283 94.02 167.523 93.52 167.523 92.22V87.08H169.923L171.483 84.96H167.523V82.28H167.403L161.163 86.04V86.16H163.263V92.64C163.263 94.48 164.483 95.26 166.563 95.26Z" fill="black"/>
</svg>
