<svg width="227" height="32" viewBox="0 0 227 32" fill="none" xmlns="http://www.w3.org/2000/svg">
<path d="M9.09834 24.6777C14.0837 24.6777 18.7887 21.6241 18.7887 16.7945C18.7887 11.9649 15.7663 9.72152 10.6874 8.53749L8.81792 8.10126C6.20058 7.47809 4.42454 6.20058 4.42454 3.80136C4.42454 1.62025 6.13827 0.311587 8.7556 0.311587C11.7157 0.311587 14.5511 1.71373 16.7322 9.16066H16.9192L16.2649 0.0934769H16.1091L14.52 1.68257C13.1801 0.560857 10.9056 0 8.78676 0C4.14411 0 0 2.83544 0 7.60273C0 11.6845 2.58617 14.5823 6.91724 15.5794L8.81792 16.0156C12.1519 16.7634 14.2084 17.9786 14.2084 20.5648C14.2084 23.0263 12.2454 24.3661 9.1295 24.3661C5.51509 24.3661 2.43038 22.185 0.467381 14.6758H0.280429L0.96592 24.5842H1.12171L2.83544 23.0574C4.01947 23.9299 6.44985 24.6777 9.09834 24.6777Z" fill="#0A001E"/>
<path d="M20.0492 24.2726H30.612V23.9611H28.649V13.3671C28.649 10.7498 29.054 9.62804 30.1758 9.62804C31.2975 9.62804 31.6714 10.7498 31.6714 13.3671V24.2726H40.2712V23.9611H38.3082V13.7098C38.3082 10.1577 36.7191 7.91431 33.3539 7.91431C31.1728 7.91431 29.1475 8.72444 28.649 10.8121V0.654334H20.0492V0.965921H22.0122V23.9611H20.0492V24.2726Z" fill="#0A001E"/>
<path d="M45.7361 24.6777C47.668 24.6777 49.4752 23.8364 49.8802 21.4684L50.4411 24.2726H58.3866V23.9611H56.4236V13.0555C56.4236 8.63096 53.9932 7.78968 50.8773 7.78968C47.6368 7.78968 46.0166 8.81792 44.334 9.59688C42.9318 10.2512 41.0935 11.5287 41.0935 13.1178C41.0935 14.4576 42.371 15.0497 43.8666 15.0497C44.8014 15.0497 46.4528 14.5511 46.889 13.4917C45.6738 8.7556 47.481 8.41285 48.1665 8.41285C49.4129 8.41285 49.8802 9.90847 49.8802 11.4664C49.8802 12.6193 49.6621 13.0867 49.1947 13.6475C48.7274 14.2395 47.9172 14.925 47.0448 15.4236C44.6144 16.888 41.0623 16.9192 41.0623 20.409C41.0623 22.7459 43.0876 24.6777 45.7361 24.6777ZM48.9766 22.4031C47.9172 22.4031 47.5433 20.0039 47.5433 17.9474C47.5433 16.296 48.1977 15.2366 49.2882 13.9903C49.4752 13.7722 49.6933 13.5229 49.8491 13.2736L49.7556 20.1908C49.7244 21.5618 49.5686 22.4031 48.9766 22.4031Z" fill="#0A001E"/>
<path d="M70.1967 23.9611H67.2989V12.9932L67.8286 12.7439L71.4119 14.9873C72.5336 14.8627 73.7488 13.6475 73.7488 11.2171C73.7488 9.09834 72.6271 7.94547 71.1938 7.94547C69.6982 7.94547 68.6699 9.75268 67.2989 12.8374V7.29114L58.6991 11.3729V11.4976L60.6621 13.2736V23.9611H58.6991V24.2726H70.1967V23.9611Z" fill="#0A001E"/>
<path d="M73.9053 32H85.4029V31.6884H82.5051V21.3749C82.9413 23.3379 84.6862 24.6777 86.8362 24.6777C90.0767 24.6777 93.3172 21.7176 93.3172 16.296C93.3172 10.8744 90.0767 7.91431 86.8362 7.91431C84.6862 7.91431 82.9413 9.25414 82.5051 11.2171V7.29114L73.9053 11.3729V11.4976L75.8683 13.2736V31.6884H73.9053V32ZM84.0319 22.9017C83.3776 22.9017 82.5051 21.7488 82.5051 19.8169V12.7751C82.5051 10.8432 83.3776 9.69036 84.0319 9.69036C84.8732 9.69036 85.8079 11.0613 85.8079 16.296C85.8079 21.5307 84.8732 22.9017 84.0319 22.9017Z" fill="#0A001E"/>
<path d="M141.006 24.6777C145.991 24.6777 150.696 21.6241 150.696 16.7945C150.696 11.9649 147.674 9.72152 142.595 8.53749L140.725 8.10126C138.108 7.47809 136.332 6.20058 136.332 3.80136C136.332 1.62025 138.046 0.311587 140.663 0.311587C143.623 0.311587 146.458 1.71373 148.639 9.16066H148.826L148.172 0.0934769H148.016L146.427 1.68257C145.087 0.560857 142.813 0 140.694 0C136.051 0 131.907 2.83544 131.907 7.60273C131.907 11.6845 134.493 14.5823 138.824 15.5794L140.725 16.0156C144.059 16.7634 146.116 17.9786 146.116 20.5648C146.116 23.0263 144.153 24.3661 141.037 24.3661C137.422 24.3661 134.338 22.185 132.375 14.6758H132.188L132.873 24.5842H133.029L134.743 23.0574C135.927 23.9299 138.357 24.6777 141.006 24.6777Z" fill="#0A001E"/>
<path d="M151.956 24.2726H162.519V23.9611H160.556V13.3671C160.556 10.7498 160.961 9.62804 162.083 9.62804C163.205 9.62804 163.579 10.7498 163.579 13.3671V24.2726H172.178V23.9611H170.215V13.7098C170.215 10.1577 168.626 7.91431 165.261 7.91431C163.08 7.91431 161.055 8.72444 160.556 10.8121V0.654334H151.956V0.965921H153.919V23.9611H151.956V24.2726Z" fill="#0A001E"/>
<path d="M177.643 24.6777C179.575 24.6777 181.382 23.8364 181.787 21.4684L182.348 24.2726H190.294V23.9611H188.331V13.0555C188.331 8.63096 185.9 7.78968 182.785 7.78968C179.544 7.78968 177.924 8.81792 176.241 9.59688C174.839 10.2512 173.001 11.5287 173.001 13.1178C173.001 14.4576 174.278 15.0497 175.774 15.0497C176.709 15.0497 178.36 14.5511 178.796 13.4917C177.581 8.7556 179.388 8.41285 180.074 8.41285C181.32 8.41285 181.787 9.90847 181.787 11.4664C181.787 12.6193 181.569 13.0867 181.102 13.6475C180.635 14.2395 179.824 14.925 178.952 15.4236C176.522 16.888 172.97 16.9192 172.97 20.409C172.97 22.7459 174.995 24.6777 177.643 24.6777ZM180.884 22.4031C179.824 22.4031 179.451 20.0039 179.451 17.9474C179.451 16.296 180.105 15.2366 181.195 13.9903C181.382 13.7722 181.601 13.5229 181.756 13.2736L181.663 20.1908C181.632 21.5618 181.476 22.4031 180.884 22.4031Z" fill="#0A001E"/>
<path d="M202.104 23.9611H199.206V12.9932L199.736 12.7439L203.319 14.9873C204.441 14.8627 205.656 13.6475 205.656 11.2171C205.656 9.09834 204.534 7.94547 203.101 7.94547C201.605 7.94547 200.577 9.75268 199.206 12.8374V7.29114L190.606 11.3729V11.4976L192.569 13.2736V23.9611H190.606V24.2726H202.104V23.9611Z" fill="#0A001E"/>
<path d="M207.37 24.2726H214.007V15.8598L218.712 24.2726H226.159L221.174 15.3612H214.101L215.659 12.9932H221.766L224.383 8.63096H218.151L214.007 14.9562V0.654334H205.408V0.965921H207.37V24.2726Z" fill="#0A001E"/>
<g clip-path="url(#clip0)">
<path d="M110.691 11.184L110.761 10.8851L112.626 2.82056C110.764 2.81881 108.926 3.23459 107.247 4.03729C105.567 4.83999 104.09 6.00917 102.922 7.45872L110.414 11.0394L110.691 11.184Z" fill="#4700E5"/>
<path d="M109.096 18.1619H108.775L100.498 18.1362C100.927 19.9428 101.752 21.6313 102.914 23.0795C104.076 24.5278 105.545 25.6993 107.216 26.5093L109.029 18.4737L109.096 18.1619Z" fill="#4700E5"/>
<path d="M108.213 14.2826L108.023 14.0415L102.88 7.53589C101.716 8.99287 100.894 10.6934 100.477 12.5113C100.059 14.3293 100.057 16.2178 100.469 18.0368L107.933 14.4176L108.213 14.2826Z" fill="#4700E5"/>
<path d="M112.68 19.8882L112.487 20.126L107.345 26.5545C109.015 27.3414 110.84 27.7465 112.686 27.7404C114.532 27.7343 116.354 27.3171 118.019 26.5192L112.876 20.1196L112.68 19.8882Z" fill="#4700E5"/>
<path d="M112.626 0.576904C109.718 0.576904 106.875 1.43924 104.457 3.05485C102.04 4.67047 100.155 6.96679 99.0425 9.65341C97.9299 12.34 97.6389 15.2963 98.2064 18.1483C98.774 21.0002 100.175 23.6199 102.231 25.6758C104.287 27.7318 106.907 29.1318 109.759 29.6987C112.612 30.2656 115.568 29.974 118.254 28.8608C120.94 27.7475 123.236 25.8626 124.851 23.4445C126.467 21.0263 127.328 18.1836 127.328 15.2756C127.327 11.377 125.777 7.63833 123.02 4.88187C120.263 2.12541 116.524 0.576904 112.626 0.576904V0.576904ZM112.626 28.1519C110.079 28.1519 107.589 27.3967 105.472 25.9819C103.355 24.567 101.704 22.556 100.73 20.2032C99.755 17.8503 99.5 15.2614 99.9968 12.7636C100.494 10.2659 101.72 7.97153 103.521 6.17075C105.322 4.36997 107.616 3.14363 110.114 2.64679C112.611 2.14996 115.2 2.40495 117.553 3.37953C119.906 4.3541 121.917 6.00449 123.332 8.12198C124.747 10.2395 125.502 12.729 125.502 15.2756C125.502 16.9667 125.17 18.6413 124.523 20.2037C123.876 21.7661 122.927 23.1857 121.732 24.3815C120.536 25.5772 119.116 26.5257 117.554 27.1726C115.991 27.8196 114.317 28.1523 112.626 28.1519Z" fill="#4700E5"/>
<path d="M114.67 11.1839L114.946 11.0522L122.355 7.49399C121.199 6.04991 119.736 4.88169 118.072 4.07434C116.408 3.267 114.585 2.84085 112.735 2.8269L114.599 10.8625L114.67 11.1839Z" fill="#4700E5"/>
<path d="M116.264 18.1619L116.332 18.4609L118.135 26.4611C119.783 25.6446 121.231 24.4755 122.376 23.0368C123.521 21.5981 124.336 19.9251 124.763 18.1362L116.57 18.1587L116.264 18.1619Z" fill="#4700E5"/>
<path d="M122.445 7.60327L117.341 14.0318L117.151 14.2728L117.428 14.4078L124.795 17.9917C125.199 16.1943 125.198 14.3295 124.791 12.5326C124.385 10.7357 123.583 9.0519 122.445 7.60327Z" fill="#4700E5"/>
</g>
<defs>
<clipPath id="clip0">
<rect width="29.4007" height="29.4007" fill="white" transform="translate(97.9269 0.576904)"/>
</clipPath>
</defs>
</svg>
