<svg width="70" height="80" viewBox="0 0 70 80" fill="none" xmlns="http://www.w3.org/2000/svg">
<path fill-rule="evenodd" clip-rule="evenodd" d="M6.64348 23.7963L35 7.59255L63.3565 23.7963V56.2037L35 72.4075L6.64348 56.2037V23.7963ZM35 0L70 20V60L35 80L0 60V20L35 0ZM23.9949 38.1821C26.0159 39.9148 28.7036 40.95 31.4099 41.4962L35.9925 42.4135C37.9808 42.8172 39.8233 43.3859 41.159 44.2851C42.4671 45.1657 43.2723 46.347 43.2723 48.0425C43.2723 49.6313 42.5246 50.9364 41.202 51.8631C39.8651 52.7999 37.9269 53.3549 35.588 53.3549C33.054 53.3549 31.0081 52.7288 29.4739 51.5411C27.942 50.3553 26.8663 48.5682 26.347 46.1453L26.254 45.711H19.4199L19.4887 46.3199C19.9407 50.3197 21.6758 53.5767 24.4434 55.8293C27.2066 58.0784 30.9558 59.2919 35.382 59.2919C39.1009 59.2919 42.8101 58.3144 45.6059 56.3635C48.417 54.4019 50.3005 51.4538 50.3005 47.5839C50.3005 43.6683 48.5631 41.0866 46.0476 39.3505C43.568 37.6392 40.344 36.7557 37.3477 36.1421L32.9213 35.2252C31.3738 34.904 30.0579 34.3707 29.1385 33.5931C28.2382 32.8318 27.6977 31.8219 27.6977 30.4617C27.6977 28.7933 28.6892 27.662 30.0895 26.9189C31.5033 26.1686 33.2621 25.8628 34.5583 25.8628C38.0133 25.8628 41.7407 27.1413 42.8277 31.1638L42.9375 31.5702H49.696L49.5698 30.9191C48.8231 27.0655 46.9048 24.2994 44.2612 22.5061C41.6292 20.7205 38.3191 19.9258 34.8157 19.9258C31.5903 19.9258 28.0692 20.7609 25.3366 22.5176C22.5884 24.2842 20.618 27.0026 20.618 30.7165C20.618 33.9933 21.9565 36.4345 23.9949 38.1821Z" fill="#252733"/>
</svg> 
