<?xml version="1.0" encoding="iso-8859-1"?>
<!-- Generator: Adobe Illustrator 16.0.0, SVG Export Plug-In . SVG Version: 6.00 Build 0)  -->
<!DOCTYPE svg PUBLIC "-//W3C//DTD SVG 1.1//EN" "http://www.w3.org/Graphics/SVG/1.1/DTD/svg11.dtd">
<svg version="1.1" id="Capa_1" xmlns="http://www.w3.org/2000/svg" xmlns:xlink="http://www.w3.org/1999/xlink" x="0px" y="0px"
	 width="56.833px" height="56.833px" viewBox="0 0 56.833 56.833" style="enable-background:new 0 0 56.833 56.833;"
	 xml:space="preserve">
<g>
	<g>
		<path d="M45.667,28.915c-1.838,0-3.334,1.495-3.334,3.333s1.496,3.333,3.334,3.333c1.837,0,3.332-1.495,3.332-3.333
			S47.504,28.915,45.667,28.915z M45.667,33.581c-0.735,0-1.334-0.598-1.334-1.333s0.599-1.333,1.334-1.333
			c0.733,0,1.332,0.598,1.332,1.333S46.4,33.581,45.667,33.581z"/>
		<path d="M53.833,25.415H53.5v-9.667c0-1.654-1.346-3-3-3h-3.833V9.252c0-1.654-1.347-3-3-3H3c-1.654,0-3,1.346-3,3v31.833
			c0,0.417,0,1.523,7.132,8.541c0.194,0.191,0.448,0.287,0.701,0.287c0.038,0,0.073-0.019,0.111-0.022
			c0.517,0.424,1.169,0.689,1.889,0.689H50.5c1.654,0,3-1.346,3-3v-8.5h0.333c1.653,0,3-1.346,3-3v-7.666
			C56.833,26.761,55.486,25.415,53.833,25.415z M2,40.973V9.252c0-0.551,0.448-1,1-1h40.667c0.552,0,1,0.449,1,1v3.495H9.833
			c-1.654,0-3,1.346-3,3v30.745C4.501,44.106,2.325,41.69,2,40.973z M51.5,47.581c0,0.551-0.448,1-1,1H9.833c-0.552,0-1-0.449-1-1
			V15.748c0-0.551,0.448-1,1-1H50.5c0.552,0,1,0.449,1,1v9.667h-5.833c-3.769,0-6.834,3.064-6.834,6.833s3.065,6.833,6.834,6.833
			H51.5V47.581z M54.833,36.081c0,0.551-0.448,1-1,1H52.5h-6.833c-2.665,0-4.834-2.168-4.834-4.833s2.169-4.833,4.834-4.833H52.5
			h1.333c0.552,0,1,0.449,1,1V36.081z"/>
		<path d="M49.167,23.748c0.554,0,1-0.448,1-1v-5.834c0-0.552-0.446-1-1-1s-1,0.448-1,1v5.834
			C48.167,23.3,48.613,23.748,49.167,23.748z"/>
	</g>
</g>
<g>
</g>
<g>
</g>
<g>
</g>
<g>
</g>
<g>
</g>
<g>
</g>
<g>
</g>
<g>
</g>
<g>
</g>
<g>
</g>
<g>
</g>
<g>
</g>
<g>
</g>
<g>
</g>
<g>
</g>
</svg>
