<svg width="14" height="14" viewBox="0 0 14 14" fill="none" xmlns="http://www.w3.org/2000/svg">
<path d="M6.99068 0C3.11318 0 0 2.8522 0 7.02796C0 11.1664 3.11318 14 6.99068 14C10.8495 14 13.9627 11.1664 13.9627 7.02796C13.9627 2.8522 10.8495 0 6.99068 0ZM6.99068 12.7137C3.85885 12.7137 1.43542 10.4021 1.43542 7.02796C1.43542 3.59787 3.85885 1.30493 6.99068 1.30493C10.1784 1.30493 12.5459 3.59787 12.5459 7.02796C12.5459 10.4021 10.1784 12.7137 6.99068 12.7137ZM8.83622 8.03462C8.57523 9.05992 7.81092 9.43276 6.97204 9.43276C5.87217 9.43276 5.07057 8.57523 5.07057 6.87883C5.07057 5.20107 5.89081 4.38083 6.97204 4.38083C7.88549 4.38083 8.57523 4.95872 8.79893 5.96538L10.3462 5.53662C9.99201 4.11984 8.81758 3.05726 7.02796 3.05726C4.80959 3.05726 3.39281 4.52996 3.39281 6.87883C3.39281 9.24634 4.67909 10.7563 6.97204 10.7563C8.81758 10.7563 9.99201 9.71238 10.4021 8.4261L8.83622 8.03462Z" fill="#0D0222"/>
</svg>
