<svg width="241" height="60" viewBox="0 0 241 60" fill="none" xmlns="http://www.w3.org/2000/svg">
<path d="M9.57602 23.364C14.056 23.364 18.284 20.62 18.284 16.28C18.284 11.94 15.568 9.92401 11.004 8.86001L9.32402 8.46801C6.97202 7.90801 5.37602 6.76001 5.37602 4.60401C5.37602 2.64401 6.91602 1.46801 9.26802 1.46801C11.928 1.46801 14.476 2.72801 16.436 9.42001H16.604L16.016 1.27201H15.876L14.448 2.70001C13.244 1.69201 11.2 1.18801 9.29602 1.18801C5.12402 1.18801 1.40002 3.73601 1.40002 8.02001C1.40002 11.688 3.72401 14.292 7.61602 15.188L9.32402 15.58C12.32 16.252 14.168 17.344 14.168 19.668C14.168 21.88 12.404 23.084 9.60402 23.084C6.35602 23.084 3.58402 21.124 1.82002 14.376H1.65202L2.26802 23.28H2.40802L3.94801 21.908C5.01202 22.692 7.19602 23.364 9.57602 23.364Z" fill="#0D0222"/>
<path d="M19.4167 23H28.9087V22.72H27.1447V13.2C27.1447 10.848 27.5087 9.84001 28.5167 9.84001C29.5247 9.84001 29.8607 10.848 29.8607 13.2V23H37.5887V22.72H35.8247V13.508C35.8247 10.316 34.3967 8.30001 31.3727 8.30001C29.4127 8.30001 27.5927 9.02801 27.1447 10.904V1.77601H19.4167V2.05601H21.1807V22.72H19.4167V23Z" fill="#0D0222"/>
<path d="M42.4996 23.364C44.2356 23.364 45.8596 22.608 46.2236 20.48L46.7276 23H53.8676V22.72H52.1036V12.92C52.1036 8.94401 49.9196 8.18801 47.1196 8.18801C44.2076 8.18801 42.7516 9.11201 41.2396 9.81201C39.9796 10.4 38.3276 11.548 38.3276 12.976C38.3276 14.18 39.4756 14.712 40.8196 14.712C41.6596 14.712 43.1436 14.264 43.5356 13.312C42.4436 9.05601 44.0676 8.74801 44.6836 8.74801C45.8036 8.74801 46.2236 10.092 46.2236 11.492C46.2236 12.528 46.0276 12.948 45.6076 13.452C45.1876 13.984 44.4596 14.6 43.6756 15.048C41.4916 16.364 38.2996 16.392 38.2996 19.528C38.2996 21.628 40.1196 23.364 42.4996 23.364ZM45.4116 21.32C44.4596 21.32 44.1236 19.164 44.1236 17.316C44.1236 15.832 44.7116 14.88 45.6916 13.76C45.8596 13.564 46.0556 13.34 46.1956 13.116L46.1116 19.332C46.0836 20.564 45.9436 21.32 45.4116 21.32Z" fill="#0D0222"/>
<path d="M64.4805 22.72H61.8765V12.864L62.3525 12.64L65.5725 14.656C66.5805 14.544 67.6725 13.452 67.6725 11.268C67.6725 9.36401 66.6645 8.32801 65.3765 8.32801C64.0325 8.32801 63.1085 9.95201 61.8765 12.724V7.74001L54.1485 11.408V11.52L55.9125 13.116V22.72H54.1485V23H64.4805V22.72Z" fill="#0D0222"/>
<path d="M67.8132 29.944H78.1452V29.664H75.5412V20.396C75.9332 22.16 77.5012 23.364 79.4332 23.364C82.3452 23.364 85.2572 20.704 85.2572 15.832C85.2572 10.96 82.3452 8.30001 79.4332 8.30001C77.5012 8.30001 75.9332 9.50401 75.5412 11.268V7.74001L67.8132 11.408V11.52L69.5772 13.116V29.664H67.8132V29.944ZM76.9132 21.768C76.3252 21.768 75.5412 20.732 75.5412 18.996V12.668C75.5412 10.932 76.3252 9.89601 76.9132 9.89601C77.6692 9.89601 78.5092 11.128 78.5092 15.832C78.5092 20.536 77.6692 21.768 76.9132 21.768Z" fill="#0D0222"/>
<path d="M95.5721 23.364C100.052 23.364 104.28 20.62 104.28 16.28C104.28 11.94 101.564 9.92401 97.0001 8.86001L95.3201 8.46801C92.9681 7.90801 91.3721 6.76001 91.3721 4.60401C91.3721 2.64401 92.9121 1.46801 95.2641 1.46801C97.9241 1.46801 100.472 2.72801 102.432 9.42001H102.6L102.012 1.27201H101.872L100.444 2.70001C99.2401 1.69201 97.1961 1.18801 95.2921 1.18801C91.1201 1.18801 87.3961 3.73601 87.3961 8.02001C87.3961 11.688 89.7201 14.292 93.6121 15.188L95.3201 15.58C98.3161 16.252 100.164 17.344 100.164 19.668C100.164 21.88 98.4001 23.084 95.6001 23.084C92.3521 23.084 89.5801 21.124 87.8161 14.376H87.6481L88.2641 23.28H88.4041L89.9441 21.908C91.0081 22.692 93.1921 23.364 95.5721 23.364Z" fill="#0D0222"/>
<path d="M105.413 23H114.905V22.72H113.141V13.2C113.141 10.848 113.505 9.84001 114.513 9.84001C115.521 9.84001 115.857 10.848 115.857 13.2V23H123.585V22.72H121.821V13.508C121.821 10.316 120.393 8.30001 117.369 8.30001C115.409 8.30001 113.589 9.02801 113.141 10.904V1.77601H105.413V2.05601H107.177V22.72H105.413V23Z" fill="#0D0222"/>
<path d="M128.496 23.364C130.232 23.364 131.856 22.608 132.22 20.48L132.724 23H139.864V22.72H138.1V12.92C138.1 8.94401 135.916 8.18801 133.116 8.18801C130.204 8.18801 128.748 9.11201 127.236 9.81201C125.976 10.4 124.324 11.548 124.324 12.976C124.324 14.18 125.472 14.712 126.816 14.712C127.656 14.712 129.14 14.264 129.532 13.312C128.44 9.05601 130.064 8.74801 130.68 8.74801C131.8 8.74801 132.22 10.092 132.22 11.492C132.22 12.528 132.024 12.948 131.604 13.452C131.184 13.984 130.456 14.6 129.672 15.048C127.488 16.364 124.296 16.392 124.296 19.528C124.296 21.628 126.116 23.364 128.496 23.364ZM131.408 21.32C130.456 21.32 130.12 19.164 130.12 17.316C130.12 15.832 130.708 14.88 131.688 13.76C131.856 13.564 132.052 13.34 132.192 13.116L132.108 19.332C132.08 20.564 131.94 21.32 131.408 21.32Z" fill="#0D0222"/>
<path d="M150.477 22.72H147.873V12.864L148.349 12.64L151.569 14.656C152.577 14.544 153.669 13.452 153.669 11.268C153.669 9.36401 152.661 8.32801 151.373 8.32801C150.029 8.32801 149.105 9.95201 147.873 12.724V7.74001L140.145 11.408V11.52L141.909 13.116V22.72H140.145V23H150.477V22.72Z" fill="#0D0222"/>
<path d="M155.209 23H161.173V15.44L165.401 23H172.093L167.613 14.992H161.257L162.657 12.864H168.145L170.497 8.94401H164.897L161.173 14.628V1.77601H153.445V2.05601H155.209V23Z" fill="#0D0222"/>
<path d="M175.811 23.364C177.799 23.364 179.311 21.852 179.311 19.892C179.311 18.044 177.799 16.532 175.811 16.532C173.991 16.532 172.479 18.044 172.479 19.892C172.479 21.852 173.991 23.364 175.811 23.364Z" fill="#0D0222"/>
<path d="M185.123 7.15201C187.055 7.15201 188.623 5.58401 188.623 3.65201C188.623 1.74801 187.055 0.208008 185.123 0.208008C183.219 0.208008 181.679 1.74801 181.679 3.65201C181.679 5.58401 183.219 7.15201 185.123 7.15201ZM188.287 7.74001L180.559 11.408V11.52L182.323 13.116V22.72H180.559V23H190.051V22.72H188.287V7.74001Z" fill="#0D0222"/>
<path d="M198.856 23.364C204.12 23.364 206.892 19.864 206.892 15.832C206.892 11.8 204.12 8.30001 198.856 8.30001C193.592 8.30001 190.82 11.8 190.82 15.832C190.82 19.864 193.592 23.364 198.856 23.364ZM200.452 22.972C199.304 22.972 198.576 20.928 197.316 16.252C196.532 13.368 196.112 11.464 196.112 10.288C196.112 9.19601 196.56 8.69201 197.26 8.69201C198.408 8.69201 199.136 10.736 200.396 15.412C201.18 18.296 201.6 20.2 201.6 21.376C201.6 22.468 201.152 22.972 200.452 22.972Z" fill="#0D0222"/>
<path d="M0.0280151 59.944H10.36V59.664H7.75602V50.396C8.14802 52.16 9.71602 53.364 11.648 53.364C14.56 53.364 17.472 50.704 17.472 45.832C17.472 40.96 14.56 38.3 11.648 38.3C9.71602 38.3 8.14802 39.504 7.75602 41.268V37.74L0.0280151 41.408V41.52L1.79202 43.116V59.664H0.0280151V59.944ZM9.12802 51.768C8.54002 51.768 7.75602 50.732 7.75602 48.996V42.668C7.75602 40.932 8.54002 39.896 9.12802 39.896C9.88402 39.896 10.724 41.128 10.724 45.832C10.724 50.536 9.88402 51.768 9.12802 51.768Z" fill="#0D0222"/>
<path d="M28.879 52.72H26.275V42.864L26.751 42.64L29.971 44.656C30.979 44.544 32.071 43.452 32.071 41.268C32.071 39.364 31.063 38.328 29.775 38.328C28.431 38.328 27.507 39.952 26.275 42.724V37.74L18.547 41.408V41.52L20.311 43.116V52.72H18.547V53H28.879V52.72Z" fill="#0D0222"/>
<path d="M40.7542 53.364C46.0182 53.364 48.7902 49.864 48.7902 45.832C48.7902 41.8 46.0182 38.3 40.7542 38.3C35.4902 38.3 32.7182 41.8 32.7182 45.832C32.7182 49.864 35.4902 53.364 40.7542 53.364ZM42.3502 52.972C41.2022 52.972 40.4742 50.928 39.2142 46.252C38.4302 43.368 38.0102 41.464 38.0102 40.288C38.0102 39.196 38.4582 38.692 39.1582 38.692C40.3062 38.692 41.0342 40.736 42.2942 45.412C43.0782 48.296 43.4982 50.2 43.4982 51.376C43.4982 52.468 43.0502 52.972 42.3502 52.972Z" fill="#0D0222"/>
<path d="M56.4655 53.364C58.9295 53.364 61.1975 52.244 62.3735 51.208L62.2615 51.012C61.5895 51.404 60.8335 51.628 60.1335 51.628C58.8735 51.628 57.8095 50.928 57.8095 49.108V41.912H61.1695L63.3535 38.944H57.8095V35.192H57.6415L48.9055 40.456V40.624H51.8455V49.696C51.8455 52.272 53.5535 53.364 56.4655 53.364Z" fill="#0D0222"/>
<path d="M70.5204 53.364C74.0764 53.364 77.5204 51.6 77.8844 45.048H77.6044C77.1004 48.184 74.8604 48.996 72.9564 48.996C69.4284 48.996 67.4684 46.336 67.4124 42.724H77.2404C76.3724 39.476 73.4044 38.3 70.3244 38.3C66.6564 38.3 62.9604 41.716 62.9604 45.916C62.9604 50.592 66.4044 53.364 70.5204 53.364ZM69.8484 38.58C70.9964 38.58 71.6684 39.448 71.6684 40.54C71.6684 41.688 70.8844 42.444 69.2604 42.444H67.4124C67.4124 39.616 68.4204 38.58 69.8484 38.58Z" fill="#0D0222"/>
<path d="M86.3172 53.364C89.7892 53.364 93.1772 51.6 93.5412 45.048H93.2612C92.7852 48.128 90.5172 48.996 88.7252 48.996C85.4492 48.996 83.5732 46 83.5732 42.472C83.5732 40.428 84.3292 38.748 85.7572 38.748C87.2412 38.748 88.2772 40.456 88.1092 43.956C90.8252 44.348 92.5612 43.144 92.5612 41.52C92.5612 39.56 90.1532 38.3 87.4932 38.3C83.2932 38.3 79.1212 40.904 79.1212 45.916C79.1212 50.592 82.2852 53.364 86.3172 53.364Z" fill="#0D0222"/>
<path d="M101.036 53.364C103.5 53.364 105.768 52.244 106.944 51.208L106.832 51.012C106.16 51.404 105.404 51.628 104.704 51.628C103.444 51.628 102.38 50.928 102.38 49.108V41.912H105.74L107.924 38.944H102.38V35.192H102.212L93.4758 40.456V40.624H96.4158V49.696C96.4158 52.272 98.1238 53.364 101.036 53.364Z" fill="#0D0222"/>
<path d="M114.107 53.056C111.167 53.056 110.243 51.264 108.143 46.784H107.975L109.151 53.728H109.291L110.131 52.664C110.999 53.056 111.979 53.336 113.827 53.336C117.215 53.336 120.407 51.376 120.407 47.904C120.407 45.58 118.811 43.564 115.031 42.92L114.583 42.836C112.455 42.472 111.503 41.604 111.503 40.316C111.503 39.252 112.343 38.636 113.771 38.636C116.123 38.636 117.131 39.812 119.231 44.32H119.399L118.223 37.544H118.055L117.131 38.972C116.263 38.636 115.227 38.3 113.771 38.3C110.915 38.3 107.807 40.4 107.807 43.284C107.807 45.748 109.515 48.072 112.931 48.604L113.463 48.688C115.171 48.968 116.571 49.528 116.571 51.124C116.571 52.44 115.227 53.056 114.107 53.056Z" fill="#0D0222"/>
<path d="M135.235 53.364C138.707 53.364 142.095 51.6 142.459 45.048H142.179C141.703 48.128 139.435 48.996 137.643 48.996C134.367 48.996 132.491 46 132.491 42.472C132.491 40.428 133.247 38.748 134.675 38.748C136.159 38.748 137.195 40.456 137.027 43.956C139.743 44.348 141.479 43.144 141.479 41.52C141.479 39.56 139.071 38.3 136.411 38.3C132.211 38.3 128.039 40.904 128.039 45.916C128.039 50.592 131.203 53.364 135.235 53.364Z" fill="#0D0222"/>
<path d="M151.606 53.364C156.87 53.364 159.642 49.864 159.642 45.832C159.642 41.8 156.87 38.3 151.606 38.3C146.342 38.3 143.57 41.8 143.57 45.832C143.57 49.864 146.342 53.364 151.606 53.364ZM153.202 52.972C152.054 52.972 151.326 50.928 150.066 46.252C149.282 43.368 148.862 41.464 148.862 40.288C148.862 39.196 149.31 38.692 150.01 38.692C151.158 38.692 151.886 40.736 153.146 45.412C153.93 48.296 154.35 50.2 154.35 51.376C154.35 52.468 153.902 52.972 153.202 52.972Z" fill="#0D0222"/>
<path d="M160.625 53H170.117V52.72H168.353V43.2C168.353 40.848 168.717 39.84 169.725 39.84C170.733 39.84 171.069 40.848 171.069 43.2V53H178.797V52.72H177.033V43.508C177.033 40.316 175.605 38.3 172.581 38.3C170.621 38.3 168.801 39.028 168.353 40.904V37.74L160.625 41.408V41.52L162.389 43.116V52.72H160.625V53Z" fill="#0D0222"/>
<path d="M185.747 53.364C188.211 53.364 190.479 52.244 191.655 51.208L191.543 51.012C190.871 51.404 190.115 51.628 189.415 51.628C188.155 51.628 187.091 50.928 187.091 49.108V41.912H190.451L192.635 38.944H187.091V35.192H186.923L178.187 40.456V40.624H181.127V49.696C181.127 52.272 182.835 53.364 185.747 53.364Z" fill="#0D0222"/>
<path d="M199.802 53.364C203.358 53.364 206.802 51.6 207.166 45.048H206.886C206.382 48.184 204.142 48.996 202.238 48.996C198.71 48.996 196.75 46.336 196.694 42.724H206.522C205.654 39.476 202.686 38.3 199.606 38.3C195.938 38.3 192.242 41.716 192.242 45.916C192.242 50.592 195.686 53.364 199.802 53.364ZM199.13 38.58C200.278 38.58 200.95 39.448 200.95 40.54C200.95 41.688 200.166 42.444 198.542 42.444H196.694C196.694 39.616 197.702 38.58 199.13 38.58Z" fill="#0D0222"/>
<path d="M208.066 53H217.558V52.72H215.794V43.2C215.794 40.848 216.158 39.84 217.166 39.84C218.174 39.84 218.51 40.848 218.51 43.2V53H226.238V52.72H224.474V43.508C224.474 40.316 223.046 38.3 220.022 38.3C218.062 38.3 216.242 39.028 215.794 40.904V37.74L208.066 41.408V41.52L209.83 43.116V52.72H208.066V53Z" fill="#0D0222"/>
<path d="M233.188 53.364C235.652 53.364 237.92 52.244 239.096 51.208L238.984 51.012C238.312 51.404 237.556 51.628 236.856 51.628C235.596 51.628 234.532 50.928 234.532 49.108V41.912H237.892L240.076 38.944H234.532V35.192H234.364L225.628 40.456V40.624H228.568V49.696C228.568 52.272 230.276 53.364 233.188 53.364Z" fill="#0D0222"/>
</svg>
