<svg width="20" height="20" viewBox="0 0 20 20" fill="none" xmlns="http://www.w3.org/2000/svg">
<path fill-rule="evenodd" clip-rule="evenodd" d="M10 20C15.5228 20 20 15.5228 20 10C20 4.47715 15.5228 0 10 0C4.47715 0 0 4.47715 0 10C0 15.5228 4.47715 20 10 20ZM18.6115 10C18.6115 14.756 14.756 18.6115 10 18.6115C5.24401 18.6115 1.38852 14.756 1.38852 10C1.38852 5.24401 5.24401 1.38852 10 1.38852C14.756 1.38852 18.6115 5.24401 18.6115 10ZM18.8785 10C18.8785 14.9035 14.9035 18.8785 10 18.8785C5.09654 18.8785 1.1215 14.9035 1.1215 10C1.1215 5.09654 5.09654 1.1215 10 1.1215C14.9035 1.1215 18.8785 5.09654 18.8785 10ZM10.9643 8.12078L10.04 4.12275L9.11578 8.12078L5.41371 6.35067L7.96323 9.56603L4.2711 11.3568L8.37457 11.3682L7.47262 15.3714L10.04 12.1703L12.6075 15.3714L11.7055 11.3682L15.809 11.3568L12.1169 9.56603L14.6664 6.35067L10.9643 8.12078ZM15.5932 5.61153L12.5329 9.47107L16.9648 11.6206L12.0392 11.6343L13.1218 16.4395L10.04 12.5971L6.95826 16.4395L8.0409 11.6343L3.11533 11.6206L7.54715 9.47107L4.48685 5.61153L8.9306 7.73627L10.04 2.93725L11.1495 7.73627L15.5932 5.61153Z" fill="#0D0222"/>
</svg>
