<svg width="20" height="20" viewBox="0 0 20 20" fill="none" xmlns="http://www.w3.org/2000/svg">
<path d="M8.6825 7.21555L8.7306 7.0122L9.99878 1.52625C8.73257 1.52506 7.48223 1.80789 6.33982 2.35394C5.19741 2.89998 4.19202 3.69532 3.39771 4.68138L8.49446 7.11715L8.6825 7.21555Z" fill="#0D0222"/>
<path d="M7.59806 11.9624H7.37941L1.74915 11.9449C2.0407 13.1739 2.60201 14.3225 3.3924 15.3077C4.18279 16.2928 5.18246 17.0898 6.31895 17.6408L7.55214 12.1745L7.59806 11.9624Z" fill="#0D0222"/>
<path d="M6.99674 9.32337L6.86774 9.15938L3.36932 4.73389C2.57714 5.72501 2.01836 6.88183 1.73446 8.11847C1.45057 9.35511 1.44885 10.6398 1.72944 11.8772L6.80652 9.4152L6.99674 9.32337Z" fill="#0D0222"/>
<path d="M10.0361 13.1366L9.90491 13.2984L6.40649 17.6714C7.54273 18.2067 8.7839 18.4823 10.0399 18.4781C11.2959 18.474 12.5352 18.1902 13.6679 17.6474L10.1695 13.294L10.0361 13.1366Z" fill="#0D0222"/>
<path d="M9.9989 0C8.02078 4.72749e-08 6.08708 0.586609 4.44236 1.68564C2.79764 2.78467 1.51578 4.34676 0.758886 6.17435C0.0019911 8.00194 -0.195936 10.0129 0.190135 11.953C0.576207 13.8931 1.52894 15.6751 2.92783 17.0737C4.32673 18.4723 6.10896 19.4246 8.04912 19.8103C9.98929 20.1959 12.0002 19.9976 13.8277 19.2403C15.6551 18.483 17.2169 17.2008 18.3156 15.5558C19.4142 13.9109 20.0004 11.977 20 9.99891C19.9994 7.34683 18.9455 4.80358 17.07 2.92848C15.1945 1.05338 12.651 -6.33817e-08 9.9989 0V0ZM9.9989 18.7581C8.2665 18.7581 6.57301 18.2443 5.13257 17.2819C3.69214 16.3194 2.56945 14.9514 1.90649 13.3509C1.24354 11.7504 1.07007 9.98919 1.40805 8.29008C1.74602 6.59097 2.58025 5.03024 3.80524 3.80525C5.03023 2.58026 6.59096 1.74603 8.29007 1.40806C9.98918 1.07008 11.7504 1.24354 13.3509 1.9065C14.9514 2.56946 16.3194 3.69214 17.2819 5.13258C18.2443 6.57302 18.7581 8.26651 18.7581 9.99891C18.7583 11.1493 18.532 12.2884 18.0919 13.3512C17.6518 14.4141 17.0066 15.3798 16.1932 16.1932C15.3798 17.0066 14.4141 17.6518 13.3512 18.0919C12.2884 18.532 11.1492 18.7584 9.9989 18.7581Z" fill="#0D0222"/>
<path d="M11.3895 7.21544L11.5776 7.1258L16.6175 4.70533C15.8312 3.72298 14.8358 2.9283 13.7038 2.3791C12.5717 1.8299 11.3315 1.54 10.0732 1.53052L11.3414 6.99679L11.3895 7.21544Z" fill="#0D0222"/>
<path d="M12.474 11.9624L12.5199 12.1658L13.7465 17.608C14.8674 17.0526 15.8524 16.2573 16.6315 15.2786C17.4107 14.2999 17.965 13.1618 18.2551 11.9449L12.6817 11.9603L12.474 11.9624Z" fill="#0D0222"/>
<path d="M16.6787 4.77979L13.2065 9.1528L13.0775 9.31679L13.2656 9.40863L18.277 11.8466C18.5518 10.6239 18.551 9.35533 18.2745 8.133C17.9981 6.91067 17.4529 5.76522 16.6787 4.77979Z" fill="#0D0222"/>
</svg>
