<svg width="74" height="73" viewBox="0 0 74 73" fill="none" xmlns="http://www.w3.org/2000/svg">
<path d="M4.15534 0.989014H1.29028V3.85407H4.15534V0.989014Z" fill="#0D0222"/>
<path d="M7.02039 0.989014H4.15533V3.85407H7.02039V0.989014Z" fill="#0D0222"/>
<path d="M9.88544 0.989014H7.02039V3.85407H9.88544V0.989014Z" fill="#0D0222"/>
<path d="M12.7505 0.989014H9.88544V3.85407H12.7505V0.989014Z" fill="#0D0222"/>
<path d="M15.6155 0.989014H12.7505V3.85407H15.6155V0.989014Z" fill="#0D0222"/>
<path d="M18.4807 0.989014H15.6156V3.85407H18.4807V0.989014Z" fill="#0D0222"/>
<path d="M21.3456 0.989014H18.4806V3.85407H21.3456V0.989014Z" fill="#0D0222"/>
<path d="M27.0758 0.989014H24.2108V3.85407H27.0758V0.989014Z" fill="#0D0222"/>
<path d="M29.9409 0.989014H27.0758V3.85407H29.9409V0.989014Z" fill="#0D0222"/>
<path d="M41.4011 0.989014H38.536V3.85407H41.4011V0.989014Z" fill="#0D0222"/>
<path d="M55.7263 0.989014H52.8613V3.85407H55.7263V0.989014Z" fill="#0D0222"/>
<path d="M58.5914 0.989014H55.7263V3.85407H58.5914V0.989014Z" fill="#0D0222"/>
<path d="M61.4564 0.989014H58.5914V3.85407H61.4564V0.989014Z" fill="#0D0222"/>
<path d="M64.3214 0.989014H61.4564V3.85407H64.3214V0.989014Z" fill="#0D0222"/>
<path d="M67.1865 0.989014H64.3215V3.85407H67.1865V0.989014Z" fill="#0D0222"/>
<path d="M70.0516 0.989014H67.1865V3.85407H70.0516V0.989014Z" fill="#0D0222"/>
<path d="M72.9166 0.989014H70.0516V3.85407H72.9166V0.989014Z" fill="#0D0222"/>
<path d="M4.15534 3.85406H1.29028V6.71912H4.15534V3.85406Z" fill="#0D0222"/>
<path d="M21.3456 3.85406H18.4806V6.71912H21.3456V3.85406Z" fill="#0D0222"/>
<path d="M41.4011 3.85406H38.536V6.71912H41.4011V3.85406Z" fill="#0D0222"/>
<path d="M49.9962 3.85406H47.1312V6.71912H49.9962V3.85406Z" fill="#0D0222"/>
<path d="M55.7263 3.85406H52.8613V6.71912H55.7263V3.85406Z" fill="#0D0222"/>
<path d="M72.9166 3.85406H70.0516V6.71912H72.9166V3.85406Z" fill="#0D0222"/>
<path d="M4.15534 6.71915H1.29028V9.5842H4.15534V6.71915Z" fill="#0D0222"/>
<path d="M9.88544 6.71915H7.02039V9.5842H9.88544V6.71915Z" fill="#0D0222"/>
<path d="M12.7505 6.71915H9.88544V9.5842H12.7505V6.71915Z" fill="#0D0222"/>
<path d="M15.6155 6.71915H12.7505V9.5842H15.6155V6.71915Z" fill="#0D0222"/>
<path d="M21.3456 6.71915H18.4806V9.5842H21.3456V6.71915Z" fill="#0D0222"/>
<path d="M27.0758 6.71915H24.2108V9.5842H27.0758V6.71915Z" fill="#0D0222"/>
<path d="M35.671 6.71915H32.8059V9.5842H35.671V6.71915Z" fill="#0D0222"/>
<path d="M38.536 6.71915H35.671V9.5842H38.536V6.71915Z" fill="#0D0222"/>
<path d="M41.4011 6.71915H38.536V9.5842H41.4011V6.71915Z" fill="#0D0222"/>
<path d="M47.1312 6.71915H44.2661V9.5842H47.1312V6.71915Z" fill="#0D0222"/>
<path d="M49.9962 6.71915H47.1312V9.5842H49.9962V6.71915Z" fill="#0D0222"/>
<path d="M55.7263 6.71915H52.8613V9.5842H55.7263V6.71915Z" fill="#0D0222"/>
<path d="M61.4564 6.71915H58.5914V9.5842H61.4564V6.71915Z" fill="#0D0222"/>
<path d="M64.3214 6.71915H61.4564V9.5842H64.3214V6.71915Z" fill="#0D0222"/>
<path d="M67.1865 6.71915H64.3215V9.5842H67.1865V6.71915Z" fill="#0D0222"/>
<path d="M72.9166 6.71915H70.0516V9.5842H72.9166V6.71915Z" fill="#0D0222"/>
<path d="M4.15534 9.5842H1.29028V12.4493H4.15534V9.5842Z" fill="#0D0222"/>
<path d="M9.88544 9.5842H7.02039V12.4493H9.88544V9.5842Z" fill="#0D0222"/>
<path d="M12.7505 9.5842H9.88544V12.4493H12.7505V9.5842Z" fill="#0D0222"/>
<path d="M15.6155 9.5842H12.7505V12.4493H15.6155V9.5842Z" fill="#0D0222"/>
<path d="M21.3456 9.5842H18.4806V12.4493H21.3456V9.5842Z" fill="#0D0222"/>
<path d="M27.0758 9.5842H24.2108V12.4493H27.0758V9.5842Z" fill="#0D0222"/>
<path d="M29.9409 9.5842H27.0758V12.4493H29.9409V9.5842Z" fill="#0D0222"/>
<path d="M35.671 9.5842H32.8059V12.4493H35.671V9.5842Z" fill="#0D0222"/>
<path d="M41.4011 9.5842H38.536V12.4493H41.4011V9.5842Z" fill="#0D0222"/>
<path d="M44.2661 9.5842H41.4011V12.4493H44.2661V9.5842Z" fill="#0D0222"/>
<path d="M55.7263 9.5842H52.8613V12.4493H55.7263V9.5842Z" fill="#0D0222"/>
<path d="M61.4564 9.5842H58.5914V12.4493H61.4564V9.5842Z" fill="#0D0222"/>
<path d="M64.3214 9.5842H61.4564V12.4493H64.3214V9.5842Z" fill="#0D0222"/>
<path d="M67.1865 9.5842H64.3215V12.4493H67.1865V9.5842Z" fill="#0D0222"/>
<path d="M72.9166 9.5842H70.0516V12.4493H72.9166V9.5842Z" fill="#0D0222"/>
<path d="M4.15534 12.4492H1.29028V15.3143H4.15534V12.4492Z" fill="#0D0222"/>
<path d="M9.88544 12.4492H7.02039V15.3143H9.88544V12.4492Z" fill="#0D0222"/>
<path d="M12.7505 12.4492H9.88544V15.3143H12.7505V12.4492Z" fill="#0D0222"/>
<path d="M15.6155 12.4492H12.7505V15.3143H15.6155V12.4492Z" fill="#0D0222"/>
<path d="M21.3456 12.4492H18.4806V15.3143H21.3456V12.4492Z" fill="#0D0222"/>
<path d="M27.0758 12.4492H24.2108V15.3143H27.0758V12.4492Z" fill="#0D0222"/>
<path d="M29.9409 12.4492H27.0758V15.3143H29.9409V12.4492Z" fill="#0D0222"/>
<path d="M32.8059 12.4492H29.9409V15.3143H32.8059V12.4492Z" fill="#0D0222"/>
<path d="M35.671 12.4492H32.8059V15.3143H35.671V12.4492Z" fill="#0D0222"/>
<path d="M41.4011 12.4492H38.536V15.3143H41.4011V12.4492Z" fill="#0D0222"/>
<path d="M44.2661 12.4492H41.4011V15.3143H44.2661V12.4492Z" fill="#0D0222"/>
<path d="M47.1312 12.4492H44.2661V15.3143H47.1312V12.4492Z" fill="#0D0222"/>
<path d="M49.9962 12.4492H47.1312V15.3143H49.9962V12.4492Z" fill="#0D0222"/>
<path d="M55.7263 12.4492H52.8613V15.3143H55.7263V12.4492Z" fill="#0D0222"/>
<path d="M61.4564 12.4492H58.5914V15.3143H61.4564V12.4492Z" fill="#0D0222"/>
<path d="M64.3214 12.4492H61.4564V15.3143H64.3214V12.4492Z" fill="#0D0222"/>
<path d="M67.1865 12.4492H64.3215V15.3143H67.1865V12.4492Z" fill="#0D0222"/>
<path d="M72.9166 12.4492H70.0516V15.3143H72.9166V12.4492Z" fill="#0D0222"/>
<path d="M4.15534 15.3143H1.29028V18.1794H4.15534V15.3143Z" fill="#0D0222"/>
<path d="M21.3456 15.3143H18.4806V18.1794H21.3456V15.3143Z" fill="#0D0222"/>
<path d="M29.9409 15.3143H27.0758V18.1794H29.9409V15.3143Z" fill="#0D0222"/>
<path d="M38.536 15.3143H35.671V18.1794H38.536V15.3143Z" fill="#0D0222"/>
<path d="M41.4011 15.3143H38.536V18.1794H41.4011V15.3143Z" fill="#0D0222"/>
<path d="M49.9962 15.3143H47.1312V18.1794H49.9962V15.3143Z" fill="#0D0222"/>
<path d="M55.7263 15.3143H52.8613V18.1794H55.7263V15.3143Z" fill="#0D0222"/>
<path d="M72.9166 15.3143H70.0516V18.1794H72.9166V15.3143Z" fill="#0D0222"/>
<path d="M4.15534 18.1793H1.29028V21.0444H4.15534V18.1793Z" fill="#0D0222"/>
<path d="M7.02039 18.1793H4.15533V21.0444H7.02039V18.1793Z" fill="#0D0222"/>
<path d="M9.88544 18.1793H7.02039V21.0444H9.88544V18.1793Z" fill="#0D0222"/>
<path d="M12.7505 18.1793H9.88544V21.0444H12.7505V18.1793Z" fill="#0D0222"/>
<path d="M15.6155 18.1793H12.7505V21.0444H15.6155V18.1793Z" fill="#0D0222"/>
<path d="M18.4807 18.1793H15.6156V21.0444H18.4807V18.1793Z" fill="#0D0222"/>
<path d="M21.3456 18.1793H18.4806V21.0444H21.3456V18.1793Z" fill="#0D0222"/>
<path d="M27.0758 18.1793H24.2108V21.0444H27.0758V18.1793Z" fill="#0D0222"/>
<path d="M32.8059 18.1793H29.9409V21.0444H32.8059V18.1793Z" fill="#0D0222"/>
<path d="M38.536 18.1793H35.671V21.0444H38.536V18.1793Z" fill="#0D0222"/>
<path d="M44.2661 18.1793H41.4011V21.0444H44.2661V18.1793Z" fill="#0D0222"/>
<path d="M49.9962 18.1793H47.1312V21.0444H49.9962V18.1793Z" fill="#0D0222"/>
<path d="M55.7263 18.1793H52.8613V21.0444H55.7263V18.1793Z" fill="#0D0222"/>
<path d="M58.5914 18.1793H55.7263V21.0444H58.5914V18.1793Z" fill="#0D0222"/>
<path d="M61.4564 18.1793H58.5914V21.0444H61.4564V18.1793Z" fill="#0D0222"/>
<path d="M64.3214 18.1793H61.4564V21.0444H64.3214V18.1793Z" fill="#0D0222"/>
<path d="M67.1865 18.1793H64.3215V21.0444H67.1865V18.1793Z" fill="#0D0222"/>
<path d="M70.0516 18.1793H67.1865V21.0444H70.0516V18.1793Z" fill="#0D0222"/>
<path d="M72.9166 18.1793H70.0516V21.0444H72.9166V18.1793Z" fill="#0D0222"/>
<path d="M29.9409 21.0445H27.0758V23.9095H29.9409V21.0445Z" fill="#0D0222"/>
<path d="M35.671 21.0445H32.8059V23.9095H35.671V21.0445Z" fill="#0D0222"/>
<path d="M47.1312 21.0445H44.2661V23.9095H47.1312V21.0445Z" fill="#0D0222"/>
<path d="M4.15534 23.9095H1.29028V26.7745H4.15534V23.9095Z" fill="#0D0222"/>
<path d="M7.02039 23.9095H4.15533V26.7745H7.02039V23.9095Z" fill="#0D0222"/>
<path d="M9.88544 23.9095H7.02039V26.7745H9.88544V23.9095Z" fill="#0D0222"/>
<path d="M12.7505 23.9095H9.88544V26.7745H12.7505V23.9095Z" fill="#0D0222"/>
<path d="M21.3456 23.9095H18.4806V26.7745H21.3456V23.9095Z" fill="#0D0222"/>
<path d="M27.0758 23.9095H24.2108V26.7745H27.0758V23.9095Z" fill="#0D0222"/>
<path d="M44.2661 23.9095H41.4011V26.7745H44.2661V23.9095Z" fill="#0D0222"/>
<path d="M52.8613 23.9095H49.9962V26.7745H52.8613V23.9095Z" fill="#0D0222"/>
<path d="M61.4564 23.9095H58.5914V26.7745H61.4564V23.9095Z" fill="#0D0222"/>
<path d="M64.3214 23.9095H61.4564V26.7745H64.3214V23.9095Z" fill="#0D0222"/>
<path d="M67.1865 23.9095H64.3215V26.7745H67.1865V23.9095Z" fill="#0D0222"/>
<path d="M72.9166 23.9095H70.0516V26.7745H72.9166V23.9095Z" fill="#0D0222"/>
<path d="M12.7505 26.7746H9.88544V29.6396H12.7505V26.7746Z" fill="#0D0222"/>
<path d="M15.6155 26.7746H12.7505V29.6396H15.6155V26.7746Z" fill="#0D0222"/>
<path d="M24.2107 26.7746H21.3456V29.6396H24.2107V26.7746Z" fill="#0D0222"/>
<path d="M29.9409 26.7746H27.0758V29.6396H29.9409V26.7746Z" fill="#0D0222"/>
<path d="M41.4011 26.7746H38.536V29.6396H41.4011V26.7746Z" fill="#0D0222"/>
<path d="M49.9962 26.7746H47.1312V29.6396H49.9962V26.7746Z" fill="#0D0222"/>
<path d="M58.5914 26.7746H55.7263V29.6396H58.5914V26.7746Z" fill="#0D0222"/>
<path d="M70.0516 26.7746H67.1865V29.6396H70.0516V26.7746Z" fill="#0D0222"/>
<path d="M4.15534 29.6396H1.29028V32.5046H4.15534V29.6396Z" fill="#0D0222"/>
<path d="M12.7505 29.6396H9.88544V32.5046H12.7505V29.6396Z" fill="#0D0222"/>
<path d="M21.3456 29.6396H18.4806V32.5046H21.3456V29.6396Z" fill="#0D0222"/>
<path d="M24.2107 29.6396H21.3456V32.5046H24.2107V29.6396Z" fill="#0D0222"/>
<path d="M27.0758 29.6396H24.2108V32.5046H27.0758V29.6396Z" fill="#0D0222"/>
<path d="M41.4011 29.6396H38.536V32.5046H41.4011V29.6396Z" fill="#0D0222"/>
<path d="M49.9962 29.6396H47.1312V32.5046H49.9962V29.6396Z" fill="#0D0222"/>
<path d="M52.8613 29.6396H49.9962V32.5046H52.8613V29.6396Z" fill="#0D0222"/>
<path d="M61.4564 29.6396H58.5914V32.5046H61.4564V29.6396Z" fill="#0D0222"/>
<path d="M7.02039 32.5045H4.15533V35.3696H7.02039V32.5045Z" fill="#0D0222"/>
<path d="M18.4807 32.5045H15.6156V35.3696H18.4807V32.5045Z" fill="#0D0222"/>
<path d="M27.0758 32.5045H24.2108V35.3696H27.0758V32.5045Z" fill="#0D0222"/>
<path d="M35.671 32.5045H32.8059V35.3696H35.671V32.5045Z" fill="#0D0222"/>
<path d="M38.536 32.5045H35.671V35.3696H38.536V32.5045Z" fill="#0D0222"/>
<path d="M41.4011 32.5045H38.536V35.3696H41.4011V32.5045Z" fill="#0D0222"/>
<path d="M44.2661 32.5045H41.4011V35.3696H44.2661V32.5045Z" fill="#0D0222"/>
<path d="M49.9962 32.5045H47.1312V35.3696H49.9962V32.5045Z" fill="#0D0222"/>
<path d="M52.8613 32.5045H49.9962V35.3696H52.8613V32.5045Z" fill="#0D0222"/>
<path d="M58.5914 32.5045H55.7263V35.3696H58.5914V32.5045Z" fill="#0D0222"/>
<path d="M61.4564 32.5045H58.5914V35.3696H61.4564V32.5045Z" fill="#0D0222"/>
<path d="M64.3214 32.5045H61.4564V35.3696H64.3214V32.5045Z" fill="#0D0222"/>
<path d="M67.1865 32.5045H64.3215V35.3696H67.1865V32.5045Z" fill="#0D0222"/>
<path d="M4.15534 35.3697H1.29028V38.2348H4.15534V35.3697Z" fill="#0D0222"/>
<path d="M7.02039 35.3697H4.15533V38.2348H7.02039V35.3697Z" fill="#0D0222"/>
<path d="M15.6155 35.3697H12.7505V38.2348H15.6155V35.3697Z" fill="#0D0222"/>
<path d="M21.3456 35.3697H18.4806V38.2348H21.3456V35.3697Z" fill="#0D0222"/>
<path d="M24.2107 35.3697H21.3456V38.2348H24.2107V35.3697Z" fill="#0D0222"/>
<path d="M29.9409 35.3697H27.0758V38.2348H29.9409V35.3697Z" fill="#0D0222"/>
<path d="M35.671 35.3697H32.8059V38.2348H35.671V35.3697Z" fill="#0D0222"/>
<path d="M47.1312 35.3697H44.2661V38.2348H47.1312V35.3697Z" fill="#0D0222"/>
<path d="M52.8613 35.3697H49.9962V38.2348H52.8613V35.3697Z" fill="#0D0222"/>
<path d="M55.7263 35.3697H52.8613V38.2348H55.7263V35.3697Z" fill="#0D0222"/>
<path d="M61.4564 35.3697H58.5914V38.2348H61.4564V35.3697Z" fill="#0D0222"/>
<path d="M67.1865 35.3697H64.3215V38.2348H67.1865V35.3697Z" fill="#0D0222"/>
<path d="M70.0516 35.3697H67.1865V38.2348H70.0516V35.3697Z" fill="#0D0222"/>
<path d="M72.9166 35.3697H70.0516V38.2348H72.9166V35.3697Z" fill="#0D0222"/>
<path d="M12.7505 38.2347H9.88544V41.0997H12.7505V38.2347Z" fill="#0D0222"/>
<path d="M29.9409 38.2347H27.0758V41.0997H29.9409V38.2347Z" fill="#0D0222"/>
<path d="M32.8059 38.2347H29.9409V41.0997H32.8059V38.2347Z" fill="#0D0222"/>
<path d="M35.671 38.2347H32.8059V41.0997H35.671V38.2347Z" fill="#0D0222"/>
<path d="M41.4011 38.2347H38.536V41.0997H41.4011V38.2347Z" fill="#0D0222"/>
<path d="M44.2661 38.2347H41.4011V41.0997H44.2661V38.2347Z" fill="#0D0222"/>
<path d="M47.1312 38.2347H44.2661V41.0997H47.1312V38.2347Z" fill="#0D0222"/>
<path d="M49.9962 38.2347H47.1312V41.0997H49.9962V38.2347Z" fill="#0D0222"/>
<path d="M55.7263 38.2347H52.8613V41.0997H55.7263V38.2347Z" fill="#0D0222"/>
<path d="M58.5914 38.2347H55.7263V41.0997H58.5914V38.2347Z" fill="#0D0222"/>
<path d="M61.4564 38.2347H58.5914V41.0997H61.4564V38.2347Z" fill="#0D0222"/>
<path d="M72.9166 38.2347H70.0516V41.0997H72.9166V38.2347Z" fill="#0D0222"/>
<path d="M7.02039 41.0998H4.15533V43.9649H7.02039V41.0998Z" fill="#0D0222"/>
<path d="M9.88544 41.0998H7.02039V43.9649H9.88544V41.0998Z" fill="#0D0222"/>
<path d="M15.6155 41.0998H12.7505V43.9649H15.6155V41.0998Z" fill="#0D0222"/>
<path d="M21.3456 41.0998H18.4806V43.9649H21.3456V41.0998Z" fill="#0D0222"/>
<path d="M27.0758 41.0998H24.2108V43.9649H27.0758V41.0998Z" fill="#0D0222"/>
<path d="M29.9409 41.0998H27.0758V43.9649H29.9409V41.0998Z" fill="#0D0222"/>
<path d="M32.8059 41.0998H29.9409V43.9649H32.8059V41.0998Z" fill="#0D0222"/>
<path d="M38.536 41.0998H35.671V43.9649H38.536V41.0998Z" fill="#0D0222"/>
<path d="M44.2661 41.0998H41.4011V43.9649H44.2661V41.0998Z" fill="#0D0222"/>
<path d="M49.9962 41.0998H47.1312V43.9649H49.9962V41.0998Z" fill="#0D0222"/>
<path d="M61.4564 41.0998H58.5914V43.9649H61.4564V41.0998Z" fill="#0D0222"/>
<path d="M67.1865 41.0998H64.3215V43.9649H67.1865V41.0998Z" fill="#0D0222"/>
<path d="M70.0516 41.0998H67.1865V43.9649H70.0516V41.0998Z" fill="#0D0222"/>
<path d="M4.15534 43.9648H1.29028V46.8299H4.15534V43.9648Z" fill="#0D0222"/>
<path d="M24.2107 43.9648H21.3456V46.8299H24.2107V43.9648Z" fill="#0D0222"/>
<path d="M29.9409 43.9648H27.0758V46.8299H29.9409V43.9648Z" fill="#0D0222"/>
<path d="M38.536 43.9648H35.671V46.8299H38.536V43.9648Z" fill="#0D0222"/>
<path d="M41.4011 43.9648H38.536V46.8299H41.4011V43.9648Z" fill="#0D0222"/>
<path d="M47.1312 43.9648H44.2661V46.8299H47.1312V43.9648Z" fill="#0D0222"/>
<path d="M64.3214 43.9648H61.4564V46.8299H64.3214V43.9648Z" fill="#0D0222"/>
<path d="M72.9166 43.9648H70.0516V46.8299H72.9166V43.9648Z" fill="#0D0222"/>
<path d="M12.7505 46.8299H9.88544V49.6949H12.7505V46.8299Z" fill="#0D0222"/>
<path d="M15.6155 46.8299H12.7505V49.6949H15.6155V46.8299Z" fill="#0D0222"/>
<path d="M21.3456 46.8299H18.4806V49.6949H21.3456V46.8299Z" fill="#0D0222"/>
<path d="M24.2107 46.8299H21.3456V49.6949H24.2107V46.8299Z" fill="#0D0222"/>
<path d="M29.9409 46.8299H27.0758V49.6949H29.9409V46.8299Z" fill="#0D0222"/>
<path d="M32.8059 46.8299H29.9409V49.6949H32.8059V46.8299Z" fill="#0D0222"/>
<path d="M35.671 46.8299H32.8059V49.6949H35.671V46.8299Z" fill="#0D0222"/>
<path d="M47.1312 46.8299H44.2661V49.6949H47.1312V46.8299Z" fill="#0D0222"/>
<path d="M49.9962 46.8299H47.1312V49.6949H49.9962V46.8299Z" fill="#0D0222"/>
<path d="M52.8613 46.8299H49.9962V49.6949H52.8613V46.8299Z" fill="#0D0222"/>
<path d="M55.7263 46.8299H52.8613V49.6949H55.7263V46.8299Z" fill="#0D0222"/>
<path d="M58.5914 46.8299H55.7263V49.6949H58.5914V46.8299Z" fill="#0D0222"/>
<path d="M61.4564 46.8299H58.5914V49.6949H61.4564V46.8299Z" fill="#0D0222"/>
<path d="M64.3214 46.8299H61.4564V49.6949H64.3214V46.8299Z" fill="#0D0222"/>
<path d="M67.1865 46.8299H64.3215V49.6949H67.1865V46.8299Z" fill="#0D0222"/>
<path d="M70.0516 46.8299H67.1865V49.6949H70.0516V46.8299Z" fill="#0D0222"/>
<path d="M72.9166 46.8299H70.0516V49.6949H72.9166V46.8299Z" fill="#0D0222"/>
<path d="M27.0758 49.6949H24.2108V52.56H27.0758V49.6949Z" fill="#0D0222"/>
<path d="M32.8059 49.6949H29.9409V52.56H32.8059V49.6949Z" fill="#0D0222"/>
<path d="M38.536 49.6949H35.671V52.56H38.536V49.6949Z" fill="#0D0222"/>
<path d="M41.4011 49.6949H38.536V52.56H41.4011V49.6949Z" fill="#0D0222"/>
<path d="M49.9962 49.6949H47.1312V52.56H49.9962V49.6949Z" fill="#0D0222"/>
<path d="M61.4564 49.6949H58.5914V52.56H61.4564V49.6949Z" fill="#0D0222"/>
<path d="M72.9166 49.6949H70.0516V52.56H72.9166V49.6949Z" fill="#0D0222"/>
<path d="M4.15534 52.56H1.29028V55.4251H4.15534V52.56Z" fill="#0D0222"/>
<path d="M7.02039 52.56H4.15533V55.4251H7.02039V52.56Z" fill="#0D0222"/>
<path d="M9.88544 52.56H7.02039V55.4251H9.88544V52.56Z" fill="#0D0222"/>
<path d="M12.7505 52.56H9.88544V55.4251H12.7505V52.56Z" fill="#0D0222"/>
<path d="M15.6155 52.56H12.7505V55.4251H15.6155V52.56Z" fill="#0D0222"/>
<path d="M18.4807 52.56H15.6156V55.4251H18.4807V52.56Z" fill="#0D0222"/>
<path d="M21.3456 52.56H18.4806V55.4251H21.3456V52.56Z" fill="#0D0222"/>
<path d="M35.671 52.56H32.8059V55.4251H35.671V52.56Z" fill="#0D0222"/>
<path d="M38.536 52.56H35.671V55.4251H38.536V52.56Z" fill="#0D0222"/>
<path d="M49.9962 52.56H47.1312V55.4251H49.9962V52.56Z" fill="#0D0222"/>
<path d="M55.7263 52.56H52.8613V55.4251H55.7263V52.56Z" fill="#0D0222"/>
<path d="M61.4564 52.56H58.5914V55.4251H61.4564V52.56Z" fill="#0D0222"/>
<path d="M64.3214 52.56H61.4564V55.4251H64.3214V52.56Z" fill="#0D0222"/>
<path d="M67.1865 52.56H64.3215V55.4251H67.1865V52.56Z" fill="#0D0222"/>
<path d="M70.0516 52.56H67.1865V55.4251H70.0516V52.56Z" fill="#0D0222"/>
<path d="M72.9166 52.56H70.0516V55.4251H72.9166V52.56Z" fill="#0D0222"/>
<path d="M4.15534 55.4251H1.29028V58.2901H4.15534V55.4251Z" fill="#0D0222"/>
<path d="M21.3456 55.4251H18.4806V58.2901H21.3456V55.4251Z" fill="#0D0222"/>
<path d="M32.8059 55.4251H29.9409V58.2901H32.8059V55.4251Z" fill="#0D0222"/>
<path d="M38.536 55.4251H35.671V58.2901H38.536V55.4251Z" fill="#0D0222"/>
<path d="M47.1312 55.4251H44.2661V58.2901H47.1312V55.4251Z" fill="#0D0222"/>
<path d="M49.9962 55.4251H47.1312V58.2901H49.9962V55.4251Z" fill="#0D0222"/>
<path d="M61.4564 55.4251H58.5914V58.2901H61.4564V55.4251Z" fill="#0D0222"/>
<path d="M70.0516 55.4251H67.1865V58.2901H70.0516V55.4251Z" fill="#0D0222"/>
<path d="M4.15534 58.2901H1.29028V61.1552H4.15534V58.2901Z" fill="#0D0222"/>
<path d="M9.88544 58.2901H7.02039V61.1552H9.88544V58.2901Z" fill="#0D0222"/>
<path d="M12.7505 58.2901H9.88544V61.1552H12.7505V58.2901Z" fill="#0D0222"/>
<path d="M15.6155 58.2901H12.7505V61.1552H15.6155V58.2901Z" fill="#0D0222"/>
<path d="M21.3456 58.2901H18.4806V61.1552H21.3456V58.2901Z" fill="#0D0222"/>
<path d="M35.671 58.2901H32.8059V61.1552H35.671V58.2901Z" fill="#0D0222"/>
<path d="M38.536 58.2901H35.671V61.1552H38.536V58.2901Z" fill="#0D0222"/>
<path d="M41.4011 58.2901H38.536V61.1552H41.4011V58.2901Z" fill="#0D0222"/>
<path d="M49.9962 58.2901H47.1312V61.1552H49.9962V58.2901Z" fill="#0D0222"/>
<path d="M52.8613 58.2901H49.9962V61.1552H52.8613V58.2901Z" fill="#0D0222"/>
<path d="M55.7263 58.2901H52.8613V61.1552H55.7263V58.2901Z" fill="#0D0222"/>
<path d="M58.5914 58.2901H55.7263V61.1552H58.5914V58.2901Z" fill="#0D0222"/>
<path d="M61.4564 58.2901H58.5914V61.1552H61.4564V58.2901Z" fill="#0D0222"/>
<path d="M70.0516 58.2901H67.1865V61.1552H70.0516V58.2901Z" fill="#0D0222"/>
<path d="M4.15534 61.1552H1.29028V64.0202H4.15534V61.1552Z" fill="#0D0222"/>
<path d="M9.88544 61.1552H7.02039V64.0202H9.88544V61.1552Z" fill="#0D0222"/>
<path d="M12.7505 61.1552H9.88544V64.0202H12.7505V61.1552Z" fill="#0D0222"/>
<path d="M15.6155 61.1552H12.7505V64.0202H15.6155V61.1552Z" fill="#0D0222"/>
<path d="M21.3456 61.1552H18.4806V64.0202H21.3456V61.1552Z" fill="#0D0222"/>
<path d="M27.0758 61.1552H24.2108V64.0202H27.0758V61.1552Z" fill="#0D0222"/>
<path d="M29.9409 61.1552H27.0758V64.0202H29.9409V61.1552Z" fill="#0D0222"/>
<path d="M38.536 61.1552H35.671V64.0202H38.536V61.1552Z" fill="#0D0222"/>
<path d="M41.4011 61.1552H38.536V64.0202H41.4011V61.1552Z" fill="#0D0222"/>
<path d="M44.2661 61.1552H41.4011V64.0202H44.2661V61.1552Z" fill="#0D0222"/>
<path d="M49.9962 61.1552H47.1312V64.0202H49.9962V61.1552Z" fill="#0D0222"/>
<path d="M52.8613 61.1552H49.9962V64.0202H52.8613V61.1552Z" fill="#0D0222"/>
<path d="M55.7263 61.1552H52.8613V64.0202H55.7263V61.1552Z" fill="#0D0222"/>
<path d="M58.5914 61.1552H55.7263V64.0202H58.5914V61.1552Z" fill="#0D0222"/>
<path d="M61.4564 61.1552H58.5914V64.0202H61.4564V61.1552Z" fill="#0D0222"/>
<path d="M67.1865 61.1552H64.3215V64.0202H67.1865V61.1552Z" fill="#0D0222"/>
<path d="M70.0516 61.1552H67.1865V64.0202H70.0516V61.1552Z" fill="#0D0222"/>
<path d="M72.9166 61.1552H70.0516V64.0202H72.9166V61.1552Z" fill="#0D0222"/>
<path d="M4.15534 64.0202H1.29028V66.8853H4.15534V64.0202Z" fill="#0D0222"/>
<path d="M9.88544 64.0202H7.02039V66.8853H9.88544V64.0202Z" fill="#0D0222"/>
<path d="M12.7505 64.0202H9.88544V66.8853H12.7505V64.0202Z" fill="#0D0222"/>
<path d="M15.6155 64.0202H12.7505V66.8853H15.6155V64.0202Z" fill="#0D0222"/>
<path d="M21.3456 64.0202H18.4806V66.8853H21.3456V64.0202Z" fill="#0D0222"/>
<path d="M27.0758 64.0202H24.2108V66.8853H27.0758V64.0202Z" fill="#0D0222"/>
<path d="M29.9409 64.0202H27.0758V66.8853H29.9409V64.0202Z" fill="#0D0222"/>
<path d="M32.8059 64.0202H29.9409V66.8853H32.8059V64.0202Z" fill="#0D0222"/>
<path d="M35.671 64.0202H32.8059V66.8853H35.671V64.0202Z" fill="#0D0222"/>
<path d="M38.536 64.0202H35.671V66.8853H38.536V64.0202Z" fill="#0D0222"/>
<path d="M41.4011 64.0202H38.536V66.8853H41.4011V64.0202Z" fill="#0D0222"/>
<path d="M55.7263 64.0202H52.8613V66.8853H55.7263V64.0202Z" fill="#0D0222"/>
<path d="M58.5914 64.0202H55.7263V66.8853H58.5914V64.0202Z" fill="#0D0222"/>
<path d="M61.4564 64.0202H58.5914V66.8853H61.4564V64.0202Z" fill="#0D0222"/>
<path d="M64.3214 64.0202H61.4564V66.8853H64.3214V64.0202Z" fill="#0D0222"/>
<path d="M67.1865 64.0202H64.3215V66.8853H67.1865V64.0202Z" fill="#0D0222"/>
<path d="M70.0516 64.0202H67.1865V66.8853H70.0516V64.0202Z" fill="#0D0222"/>
<path d="M4.15534 66.8853H1.29028V69.7503H4.15534V66.8853Z" fill="#0D0222"/>
<path d="M21.3456 66.8853H18.4806V69.7503H21.3456V66.8853Z" fill="#0D0222"/>
<path d="M27.0758 66.8853H24.2108V69.7503H27.0758V66.8853Z" fill="#0D0222"/>
<path d="M29.9409 66.8853H27.0758V69.7503H29.9409V66.8853Z" fill="#0D0222"/>
<path d="M47.1312 66.8853H44.2661V69.7503H47.1312V66.8853Z" fill="#0D0222"/>
<path d="M61.4564 66.8853H58.5914V69.7503H61.4564V66.8853Z" fill="#0D0222"/>
<path d="M67.1865 66.8853H64.3215V69.7503H67.1865V66.8853Z" fill="#0D0222"/>
<path d="M4.15534 69.7504H1.29028V72.6154H4.15534V69.7504Z" fill="#0D0222"/>
<path d="M7.02039 69.7504H4.15533V72.6154H7.02039V69.7504Z" fill="#0D0222"/>
<path d="M9.88544 69.7504H7.02039V72.6154H9.88544V69.7504Z" fill="#0D0222"/>
<path d="M12.7505 69.7504H9.88544V72.6154H12.7505V69.7504Z" fill="#0D0222"/>
<path d="M15.6155 69.7504H12.7505V72.6154H15.6155V69.7504Z" fill="#0D0222"/>
<path d="M18.4807 69.7504H15.6156V72.6154H18.4807V69.7504Z" fill="#0D0222"/>
<path d="M21.3456 69.7504H18.4806V72.6154H21.3456V69.7504Z" fill="#0D0222"/>
<path d="M27.0758 69.7504H24.2108V72.6154H27.0758V69.7504Z" fill="#0D0222"/>
<path d="M38.536 69.7504H35.671V72.6154H38.536V69.7504Z" fill="#0D0222"/>
<path d="M44.2661 69.7504H41.4011V72.6154H44.2661V69.7504Z" fill="#0D0222"/>
<path d="M55.7263 69.7504H52.8613V72.6154H55.7263V69.7504Z" fill="#0D0222"/>
<path d="M58.5914 69.7504H55.7263V72.6154H58.5914V69.7504Z" fill="#0D0222"/>
<path d="M61.4564 69.7504H58.5914V72.6154H61.4564V69.7504Z" fill="#0D0222"/>
<path d="M64.3214 69.7504H61.4564V72.6154H64.3214V69.7504Z" fill="#0D0222"/>
<path d="M67.1865 69.7504H64.3215V72.6154H67.1865V69.7504Z" fill="#0D0222"/>
<path d="M70.0516 69.7504H67.1865V72.6154H70.0516V69.7504Z" fill="#0D0222"/>
<path d="M72.9166 69.7504H70.0516V72.6154H72.9166V69.7504Z" fill="#0D0222"/>
</svg>
